<?xml version="1.0" encoding="utf-8"?>
<!-- Generator: Adobe Illustrator 22.0.0, SVG Export Plug-In . SVG Version: 6.00 Build 0)  -->
<svg version="1.1" id="Layer_1" xmlns="http://www.w3.org/2000/svg" xmlns:xlink="http://www.w3.org/1999/xlink" x="0px" y="0px"
	 viewBox="0 0 141.9044037 34.8423691" style="enable-background:new 0 0 141.9044037 34.8423691;" xml:space="preserve">
<style type="text/css">
	.st0{fill:none;}
	.st1{fill:#808080;}
	.st2{fill:#3C90CE;}
	.st3{fill:#EE6124;}
</style>
<title>Asset 1</title>
<path class="st0" d="M118.9252548,27.5213661c1.1653595,0.9367428,2.602211,1.4718475,4.0964203,1.525568h0.7949982
	c2.0233536,0,3.8079681-0.9532146,5.4553604-2.9139137c0.9261169-1.2114773,1.4503326-2.6821747,1.4992981-4.2063103v-0.8121452
	c-0.0589142-2.2009029-1.1094513-4.2572594-2.8582458-5.5948496c-1.1654205-0.9366398-2.6022263-1.4717312-4.0964127-1.5255671
	h-0.7949982c-2.0233536,0-3.8079605,0.9532137-5.4553452,2.9139042c-0.9261093,1.2115669-1.4503174,2.6823215-1.4993057,4.2065125
	v0.8121452C116.1258392,24.1275845,117.1763916,26.1839199,118.9252548,27.5213661z"/>
<path class="st0" d="M104.0445023,21.5206146c0-2.7805386-1.2738724-4.9680748-3.8940887-6.6865225
	c-1.0747757-0.5441542-2.2541656-0.8504019-3.4579086-0.8979053c-2.7329254,0-4.8693542,1.2843695-6.5310898,3.9262819
	c-0.4513245,0.9091053-0.737114,1.8913307-0.8439789,2.9006596c0.0119476,0.1939716,0.024826,0.3878002,0.024826,0.583334v1.2797241
	c0.280098,2.3237724,1.5767899,4.1748466,3.9424057,5.6357002c1.0080795,0.4974098,2.1137695,0.7654953,3.2377167,0.7850151
	h0.3976669c2.2799454,0,4.2035446-1.0916634,5.8796387-3.3373108
	C103.5824738,24.4500313,104.0124054,23.0032578,104.0445023,21.5206146z"/>
<path class="st0" d="M82.8437042,14.7800045c-1.0426483-0.5232964-2.187439-0.8113461-3.3535919-0.8438177
	c-2.3111725,0.0052938-4.4826202,1.1073828-5.8512802,2.969739c-0.9948273,1.3344517-1.5401764,2.9503555-1.5574188,4.6147327
	c-0.0114136,2.4081554,1.1290436,4.6766701,3.0686722,6.1039715c1.1707687,0.8855152,2.5891037,1.3828144,4.0565109,1.4223022
	h0.3970108c2.7245636,0,4.8399429-1.3358307,6.4663315-4.0839958c0.3579102-0.7759666,0.5984726-1.6008377,0.7137756-2.4475555
	v-1.1689205c0-0.2299461,0.0084839-0.4569244,0.0230408-0.6817493
	C86.5925598,18.2083092,85.2929153,16.2764111,82.8437042,14.7800045z"/>
<path class="st1" d="M65.9777908,16.1363182c-2.2036362-3.1251688-4.9208107-4.7098999-8.0755653-4.7098999h-0.7949944
	c-1.5777931,0.0604324-3.1165428,0.5078115-4.4807892,1.3027525l-0.0672073,0.0411329
	c-0.5247955,0.3612089-1.0246162,0.7574234-1.4960518,1.1859436c-0.6177635,1.1461868-2.0477257,1.5745602-3.1939125,0.9567976
	c-0.0513-0.027648-0.1015549-0.057189-0.1506653-0.088562v6.1623449c-0.003109,0.1052608-0.009449,0.2093773-0.009449,0.315733
	v0.5841675c-0.0656967,1.1302948-0.3609619,2.2353573-0.8677902,3.2477818
	c-1.6620827,2.6420898-3.7988625,3.9264565-6.5316162,3.9264565c-1.20364-0.0474491-2.3829231-0.3537006-3.4575539-0.8979034
	c-2.611618-1.7128448-3.8858871-3.8914909-3.8942947-6.6587067c0.0500908-0.7399254,0.1541634-1.4752026,0.3113861-2.1999645
	c0.5253181-1.6558685,1.5684738-3.0992928,2.9758453-4.1177044c-0.8203926-0.3375063-1.3910904-1.0959597-1.4881516-1.9777393
	c-0.1155853,0.0721111-0.2395287,0.1489296-0.3822021,0.2361126l-0.1079903,0.0808668
	c-2.4899883,2.2671738-3.7526646,4.7858667-3.7526646,7.4865923v0.8121357
	c0.0461636,1.7309628,0.5247498,3.4228554,1.392149,4.9215145l0.0437584,0.070713
	c0.6685448,0.9663601,1.462677,1.8394871,2.361496,2.5964069h-1.6101494
	c0.1193695,0.2942696,0.1799469,0.6090755,0.178299,0.9266338c-0.0013046,0.4314899-0.1196098,0.8545475-0.3423195,1.2241249
	h8.1308212v-0.0372849h0.152626c1.5778008-0.0604076,3.1165543-0.5077896,4.4807892-1.3027534l0.0675621-0.0411301
	c0.475193-0.3278351,0.9300957-0.6841583,1.3621979-1.0670109c0.57658-1.1970654,2.0144005-1.7000694,3.2114677-1.1234913
	c0.0919075,0.0442696,0.1809082,0.0943394,0.2664604,0.1499081v-6.1755199
	c0.0031281-0.1054001,0.0094528-0.2096214,0.0094528-0.3161087V21.066473
	c0.065834-1.1303101,0.3612213-2.235363,0.8681488-3.2477646c1.6617432-2.6420889,3.7988701-3.9264584,6.5314445-3.9264584
	c1.2036438,0.0474262,2.3829269,0.3536806,3.4575539,0.8979063c2.6118126,1.7128534,3.8860397,3.8916311,3.8944321,6.6588621
	c-0.0501099,0.7398739-0.1542358,1.4750977-0.3115463,2.199789c-0.5427628,1.7370129-1.6674042,3.2339916-3.184597,4.2389393
	c0.8276939,0.3377037,1.3927536,1.1150017,1.4586372,2.0065041c0.1698074-0.1078396,0.3715324-0.2337933,0.6208115-0.3861122
	l0.1078262-0.0808678c2.4899902-2.2669621,3.7523041-4.7858639,3.7523041-7.4865913v-0.8121376
	c-0.0462036-1.7309151-0.5246811-3.4227734-1.3918381-4.9215145L65.9777908,16.1363182z"/>
<path class="st1" d="M105.0523224,16.1802521c-2.2036362-3.1251764-4.9208069-4.7098999-8.0755615-4.7098999h-0.7953415
	c-1.5778122,0.060339-3.1165771,0.5077248-4.4807816,1.3027534l-0.0675583,0.041132
	c-1.4569702,0.9622412-2.6814804,2.2367353-3.5846786,3.73102c-0.266449-0.4760551-0.5647888-0.9335413-0.8929825-1.3693295
	l-0.0360107-0.0441084c-2.156723-2.4294538-4.5707474-3.6614666-7.1748581-3.6614666H79.149559
	c-1.7082443,0.0488691-3.3745346,0.5404692-4.8357468,1.4266768l-0.0710602,0.0460329
	c-3.0557022,2.2487907-4.6047134,5.0176039-4.6047134,8.2294188v0.8121376
	c0.0576096,1.5988159,0.4930725,3.1612568,1.2707214,4.5593967l0.0374603,0.0644169
	c2.1553268,3.2926731,4.9915314,4.9622955,8.4305267,4.9622955h0.2838974
	c0.9997253-0.0145168,1.9913101-0.1822834,2.9401627-0.4974384l0.0514679-0.0183754
	c1.1498032-0.450016,2.2234497-1.0744114,3.183197-1.8512325c0.3795395-0.8874416,1.2557678-1.4593449,2.2209167-1.449564
	c0.9005966-0.0026855,1.7233124,0.510149,2.117485,1.3199062c1.6915512,1.620697,3.9492493,2.5165806,6.2918167,2.4966774h0.2835464
	c2.6470566-0.012476,5.1716232-1.1168766,6.9774323-3.0523643l0.0290604-0.0311527
	c1.6875-1.7524567,2.6615906-4.0707417,2.7322235-6.5025654v-0.8121376
	c-0.0461197-1.7308254-0.5244751-3.4226227-1.3914948-4.9213409L105.0523224,16.1802521z M86.7836761,21.3464603v1.1689224
	c-0.1153107,0.8467178-0.3558655,1.6715889-0.7137756,2.4475555c-1.6263962,2.7481651-3.741806,4.0839958-6.4663391,4.0839958
	h-0.3970032c-1.467392-0.0394955-2.8857193-0.5367966-4.0564728-1.4223042
	c-1.9396286-1.4273167-3.0800781-3.6958523-3.0686417-6.1040173c0.0172424-1.6643581,0.5625763-3.2802448,1.5573883-4.614687
	c1.36866-1.8623562,3.5401077-2.9644451,5.8512802-2.969739c1.166153,0.0324717,2.3109436,0.3205214,3.3535919,0.8438177
	c2.4491806,1.4964066,3.7488251,3.4283047,3.9630127,5.8847065C86.79216,20.8895283,86.7836761,21.1165142,86.7836761,21.3464603z
	 M96.9200516,29.0469341h-0.3976669c-1.1239471-0.0195198-2.2296371-0.2876053-3.2377167-0.7850151
	c-2.3656158-1.4608517-3.6623077-3.3119278-3.9424057-5.6357002v-1.2797241c0-0.1955318-0.012886-0.3893623-0.024826-0.5833321
	c0.1068649-1.0093288,0.3926544-1.9915562,0.8439789-2.9006596c1.6617355-2.6419125,3.7981644-3.9262829,6.5310898-3.9262829
	c1.203743,0.0475035,2.3831329,0.3537512,3.4579086,0.8979063c2.6202164,1.7184477,3.8940887,3.9059839,3.8940887,6.6865225
	c-0.0320892,1.4826508-0.4620209,2.9294376-1.244812,4.1890068C101.1235886,27.955267,99.1999969,29.0469341,96.9200516,29.0469341z
	"/>
<path class="st1" d="M109.9536438,27.7540874c0.4402084,0.0004444,0.871582,0.1235218,1.2457504,0.355423V15.1911936
	c-0.7507553,0.5018377-1.7227707,0.5287428-2.5001373,0.0692034v12.8380642
	C109.07798,27.871027,109.511879,27.7519073,109.9536438,27.7540874z"/>
<path class="st1" d="M131.2092438,15.3075457l-0.0419922-0.0532093c-2.1756287-2.5108128-4.62957-3.7839842-7.2938766-3.7839842
	h-0.9084167c-2.0619202,0.0725174-4.0442429,0.8140593-5.6475372,2.1126146l-0.0528564,0.0432396
	c-2.4535828,2.2186556-3.6973572,4.7184706-3.6973572,7.4302206v0.9281902
	c0.0665588,2.0852623,0.7879562,4.0966415,2.0618591,5.7488804l0.0420151,0.0532093
	c2.1756134,2.5108223,4.6295547,3.7839928,7.2938766,3.7839928h0.9084167
	c2.0619965-0.0725269,4.0444107-0.8140011,5.6478806-2.1124496l0.0528717-0.0434055
	c2.4535675-2.2190418,3.6973419-4.7188244,3.6973419-7.4302292v-0.9282055
	C133.2046051,18.9711533,132.4831085,16.9598389,131.2092438,15.3075457z M116.0670013,21.1145382
	c0.0489883-1.5241909,0.573204-2.9949455,1.4993057-4.2065125c1.6473923-1.9606905,3.4320068-2.9139042,5.4553604-2.9139042
	h0.7949905c1.4941864,0.0538359,2.9309921,0.5889273,4.0964127,1.5255671
	c1.7487946,1.3375902,2.7993317,3.3939466,2.8582458,5.5948496v0.8121452
	c-0.0489655,1.5241356-0.5731812,2.994833-1.4992981,4.2063103c-1.6473923,1.9606991-3.4319992,2.9139118-5.4553604,2.9139118
	h-0.7949905c-1.4942169-0.0537186-2.9310608-0.5888233-4.0964203-1.5255661
	c-1.7488785-1.3374481-2.7994385-3.3937969-2.8582458-5.5946827V21.1145382z"/>
<path class="st2" d="M32.8796883,30.3399277c0.0016479-0.3175602-0.0589256-0.6323643-0.178299-0.9266357
	c-0.3609009-0.8884792-1.2256756-1.468338-2.1846466-1.4648762c-1.3158302-0.0152798-2.3949089,1.0390244-2.4101887,2.3548565
	c-0.0001087,0.0093479-0.0001621,0.0186996-0.0001602,0.0280476c0.0145416,1.3140297,1.0757599,2.3759556,2.3897781,2.3913784
	c1.3142166-0.004467,2.378603-1.0685234,2.383482-2.3827381L32.8796883,30.3399277z"/>
<path class="st2" d="M88.0563583,27.7540874c-1.314537-0.0165615-2.3936157,1.0356598-2.4101791,2.3502045
	c-0.0001373,0.0108986-0.0001984,0.0217972-0.0001831,0.0326977c0.0145416,1.3140316,1.0757599,2.3759575,2.3897781,2.3913765
	c1.3158646,0.000515,2.3829956-1.0657902,2.3835068-2.3816509c0-0.0003624,0-0.0007286,0-0.001091
	c0.0016327-0.3713245-0.0823517-0.7380257-0.2454147-1.0716305C89.7796936,28.2642307,88.9569626,27.7513943,88.0563583,27.7540874z
	"/>
<path class="st3" d="M109.8822556,15.5871792c0.4687119,0.0023127,0.9274139-0.1355896,1.3171463-0.3959856
	c0.6649323-0.4426222,1.0649872-1.1879959,1.0663376-1.9867764c0.0185318-1.3021326-1.0220261-2.3727446-2.3241577-2.3912773
	c-0.0129242-0.0001841-0.0258408-0.0002613-0.038765-0.0002337c-1.3183975,0.0014677-2.3859863,1.071434-2.3845215,2.3898373
	c0.0014648,1.3083076,1.0557175,2.3716841,2.3639679,2.384409L109.8822556,15.5871792z"/>
<path class="st2" d="M61.4741669,27.8877506c-1.2301216-0.4981766-2.6311836,0.0951805-3.1293602,1.3253021
	c-0.1135101,0.2802811-0.1730957,0.5794716-0.1756363,0.881855c0.0145378,1.3140297,1.0757599,2.3759594,2.3897781,2.3913784
	c1.3158569,0.0005035,2.3829765-1.0657997,2.3834839-2.3816547c0-0.0003605,0-0.0007229,0-0.0010834
	c0.0002213-0.0707397-0.0040474-0.1402416-0.0096626-0.2092972C62.86689,29.002758,62.3018417,28.2254639,61.4741669,27.8877506z"/>
<path class="st1" d="M36.2451324,15.1866703c0.2820587,0.1176233,0.5843658,0.1790543,0.8899651,0.1808481
	c1.3158569,0.0004997,2.3829842-1.0658102,2.3834801-2.3816719c0-0.0003548,0-0.0007095,0-0.0010643
	c0.018528-1.3021517-1.0220604-2.3727703-2.3242149-2.3912954c-0.0128937-0.0001831-0.025795-0.0002613-0.0386963-0.0002327
	c-1.3158302-0.0152798-2.3949051,1.0390253-2.4101868,2.3548555c-0.0001106,0.0093489-0.000164,0.0186977-0.0001602,0.0280476
	c-0.0000534,0.077733,0.0038376,0.1554184,0.0116653,0.2327566C34.8540344,14.0907001,35.4247322,14.8491611,36.2451324,15.1866703z
	"/>
<path class="st2" d="M111.1994019,28.1095123c-0.3741684-0.2319031-0.805542-0.3549786-1.2457504-0.355423
	c-0.4417648-0.0021782-0.8756561,0.1169395-1.2543869,0.3443737c-0.7177124,0.4282398-1.1569138,1.2027531-1.1559753,2.0385189
	c0.0145416,1.3140354,1.0757675,2.3759651,2.3897934,2.3913803c1.3220901-0.0057259,2.3892136-1.0821266,2.3834915-2.4042149
	c-0.0035477-0.8183613-0.4248886-1.5782032-1.1171646-2.0146523L111.1994019,28.1095123z"/>
<path class="st3" d="M48.9731255,15.1952429c1.3184052-0.0014324,2.3860245-1.0713739,2.3845901-2.389781
	c-0.0014305-1.3184071-1.071373-2.3860254-2.3897781-2.384593c-1.3157578,0.0014296-2.3822823,1.0672388-2.384594,2.3829956
	c0.0065804,0.8237286,0.4351463,1.5865297,1.1352501,2.0206175C48.0936356,15.063467,48.5284233,15.1919622,48.9731255,15.1952429z"
	/>
<path class="st1" d="M48.9098473,27.7540874c-1.3190422-0.0121078-2.3981476,1.0473728-2.4102554,2.3664131
	c-0.0000496,0.005497-0.0000801,0.0109921-0.0000954,0.016489c0.0145493,1.314045,1.0757942,2.3759766,2.3898277,2.3913727
	c1.318367,0.008091,2.3936729-1.0540981,2.4017677-2.372467c0.008091-1.3183689-1.0541-2.3936768-2.3724632-2.4017696
	c-0.0029182-0.0000172-0.0058289-0.0000305-0.0087433-0.0000362L48.9098473,27.7540874z"/>
<path class="st1" d="M28.1859932,20.6501045c-0.1927795-1.5671463-0.7678928-3.0628605-1.6746979-4.3554592l-0.0466404-0.0638905
	c-0.7706585-0.9467125-1.6743069-1.7768764-2.6828327-2.4646664c0.0007629-0.0737095,0.0187778-0.1434393,0.0126839-0.2183342
	c-0.0016422-0.0197887-0.0055962-0.0386467-0.007616-0.0582867c-0.12117-1.2882509-1.2588081-2.2375717-2.5479412-2.1261673
	c-1.312458,0.0953579-2.2991161,1.2366199-2.2037563,2.5490789c0.0006771,0.0093155,0.0014076,0.0186272,0.0021935,0.0279341
	c0.1249237,1.308157,1.271616,2.2771511,2.582283,2.1821156c0.2921715-0.0283241,0.5762825-0.1119938,0.8371696-0.2465458
	c1.9209709,1.1933517,3.1536407,3.2350674,3.3150005,5.4907684c0.0538998,1.2033577-0.1521511,2.4041996-0.6041222,3.5207577
	c-1.4873352,2.7463799-3.5512886,4.1992054-6.3078671,4.4401035c-0.7415295,0.0122757-1.4829636-0.0296345-2.2183838-0.1254005
	c-1.1157064-0.2932034-2.1682215-0.7884293-3.1053705-1.4611244c0.1700811-1.2807064-0.7302589-2.4568024-2.0109653-2.6268864
	c-0.1752625-0.0232735-0.3525982-0.0266056-0.5286112-0.0099277c-1.312438,0.0953255-2.2991009,1.2365437-2.2037745,2.5489826
	c0.000679,0.009346,0.0014133,0.018692,0.002203,0.0280285c0.1248999,1.3081608,1.2716179,2.2771492,2.5822821,2.1820564
	c0.0166883-0.0013275,0.0328054-0.0048485,0.0494852-0.0064907c0.2060213-0.0227413,0.4081125-0.072731,0.6009779-0.1486568
	c1.8418236,1.4960613,4.1791801,2.2442493,6.5474052,2.0958309l0.8092899-0.068264
	c1.7209377-0.1914845,3.3666019-0.8105659,4.7870426-1.8008366l0.0667534-0.0495815
	c2.9289322-2.4586563,4.2797031-5.2991943,4.0145893-8.4429474L28.1859932,20.6501045z"/>
<path class="st1" d="M25.817215,4.9700265c-2.4955559-2.1488719-5.0987606-3.0941014-7.7411213-2.7969985l-0.8070774,0.0906873
	c-1.7149811,0.239305-3.3428144,0.9039664-4.7351694,1.9334188l-0.065321,0.0515313
	C9.6091213,6.7876992,8.337822,9.6647129,8.690382,12.7999296l0.0888519,0.79002
	c0.2363062,1.5611544,0.8528032,3.0402689,1.7952137,4.3071165l0.0484486,0.0625706
	c1.0239334,1.2100983,2.2769308,2.2058983,3.6869726,2.9301624c-0.0302382-0.7138824,0.2641525-1.4031162,0.800806-1.8748627
	c0.1347361-0.1140327,0.2816124-0.2128925,0.4379778-0.2947922c-2.6404371-1.3516407-4.0806208-3.2851915-4.3761692-5.9136562
	c-0.0873146-1.201395,0.0852642-2.4074984,0.5059862-3.5361996c1.4103394-2.7866521,3.4330835-4.29633,6.1818876-4.6138539
	c0.740881-0.0328522,1.4831734-0.0115843,2.2209568,0.0636344c1.6331272,0.3321266,3.1269226,1.1522875,4.2837276,2.3519592
	c0.0036888-0.2200103,0.0375767-0.4384718,0.1007175-0.64926C24.6815281,5.7638369,25.1755676,5.2327714,25.817215,4.9700265z"/>
<path class="st2" d="M14.3098688,20.8898087c0.0020638,0.0625267-0.0093107,0.1223068-0.0023451,0.1856174
	c0.0135431,0.1143551,0.0357199,0.2275238,0.0663404,0.3385334c0.3123188,1.1390648,1.4003057,1.8870773,2.5756769,1.7708302
	c1.3076916-0.1465397,2.248991-1.3254261,2.1024494-2.6331177c-0.0000362-0.0003281-0.0000744-0.000658-0.0001106-0.0009861
	c-0.1271-1.2960625-1.2807999-2.2436924-2.5768623-2.1165924c-0.0128345,0.0012589-0.0256596,0.0026226-0.0384712,0.0040913
	c-0.4880161,0.061512-0.9481592,0.2616787-1.3258705,0.5767632C14.5740213,19.4866943,14.2796307,20.1759262,14.3098688,20.8898087z
	"/>
<path class="st3" d="M26.4952736,4.778367c-0.0549107,0.005981-0.1081028,0.0163193-0.1616116,0.0257525
	c-0.1778526,0.0356627-0.3511028,0.0913124-0.5164566,0.1658897c-0.6416492,0.2627473-1.1356888,0.7938175-1.3514557,1.4527535
	c-0.063139,0.2107882-0.0970287,0.4292493-0.1007175,0.6492596c-0.0080223,0.1144323-0.007616,0.2292995,0.0012131,0.3436723
	c0.1612873,1.3041635,1.3345032,2.2408528,2.6420097,2.109365c1.3076591-0.1464977,2.24897-1.3253269,2.1024723-2.6329885
	c-0.000042-0.0003719-0.0000839-0.0007439-0.0001259-0.0011158c-0.1270847-1.2960925-1.280798-2.2437606-2.5768909-2.1166759
	C26.5208874,4.775537,26.5080757,4.7768993,26.4952736,4.778367z"/>
</svg>
