<svg xmlns="http://www.w3.org/2000/svg" viewBox="0 0 479.58 111.12"><defs><style>.a{fill:gray;}.b{fill:#3c90ce;}.c{fill:#ee6124;}</style></defs><title>logo_only</title><path class="a" d="M185.39,325.84h-3q-16.76,0-28.63-16.84-5-9.19-5-17.5v-3.11q0-14.34,13.45-26.58,6.08-3.72,6.07-4.21,0-2.22,3.69-3.1h.65q3.47,1,3.47,3.54v.67q-.7,4-3.91,4l-2.38-.66Q159.2,266.78,154,281.08a59.89,59.89,0,0,0-1.3,9.09q0,17.34,16.26,27.91,8,3.76,14.53,3.77,17.09,0,27.33-16.4a33.73,33.73,0,0,0,3.68-14.84V262.25a5.49,5.49,0,0,1-1.95-3.77q.76-4,3.91-4h.65q3.47,1,3.47,3.54v.67a5.06,5.06,0,0,1-2,3.54v28.58q0,18.39-17.35,30.36Q192.55,325.84,185.39,325.84Z" transform="translate(-57.85 -222.01)"/><path class="a" d="M185.39,328.55h-3c-12.05,0-22.43-6.05-30.85-18l-.16-.27c-3.53-6.5-5.32-12.82-5.32-18.79v-3.11c0-10.31,4.82-19.93,14.33-28.59l.41-.31c3-1.82,4.34-2.74,4.94-3.18.41-1.59,1.74-3.53,5.6-4.45l.32-.08H173l.37.11c4.73,1.36,5.43,4.44,5.43,6.15l0,1.14c-1,5.62-4.93,6.23-6.58,6.23h-.37l-1.76-.49c-5.87,3-10.4,8.66-13.48,16.95a58,58,0,0,0-1.19,8.4c0,10.57,4.9,18.89,14.88,25.44,4.89,2.27,9.33,3.43,13.2,3.43,10.44,0,18.6-4.91,24.95-15a31.29,31.29,0,0,0,3.35-13.53v-27.3a7.49,7.49,0,0,1-2-4.83l.05-.5c1.06-5.6,4.95-6.2,6.57-6.2h1l.37.11c4.72,1.36,5.43,4.44,5.43,6.15v.67a7,7,0,0,1-2,4.64v27.48c0,13.15-6.23,24.12-18.52,32.59l-.26.16C196.35,326.88,190.6,328.55,185.39,328.55Zm29.85-69.89a3.53,3.53,0,0,0,1.13,1.66l.14.15.21-.2c1.06-1,1.09-1.51,1.09-1.56V258c0-.36-.63-.65-1.17-.83h-.23C216.05,257.21,215.58,257.21,215.24,258.66Zm-44.87.72,2.09.58c.33-.07.66-.34.89-1.51V258c0-.35-.59-.63-1.12-.81a3.77,3.77,0,0,0-1.26.53A2.53,2.53,0,0,1,170.37,259.38Z" transform="translate(-57.85 -222.01)"/><path class="a" d="M247.6,254.5h3q16.74,0,28.62,16.83,5,9.21,5,17.51v3.1q0,14.34-13.45,26.59c-4,2.47-6.07,3.87-6.07,4.21,0,1.47-1.23,2.51-3.69,3.1h-.65q-3.47-1-3.47-3.55v-.66q.7-4,3.91-4l2.38.67q10.57-4.77,15.83-19.06a59.78,59.78,0,0,0,1.31-9.08q0-17.34-16.27-27.92-8-3.76-14.53-3.77-17.07,0-27.32,16.4a33.81,33.81,0,0,0-3.69,14.84v28.36a5.51,5.51,0,0,1,2,3.77q-.77,4-3.9,4h-.65c-2.32-.67-3.47-1.85-3.47-3.55v-.66a5.1,5.1,0,0,1,1.95-3.55V289.5q0-18.39,17.35-30.35Q240.44,254.5,247.6,254.5Z" transform="translate(-57.85 -222.01)"/><path class="a" d="M261.37,328.55H260l-.37-.1c-4.72-1.36-5.43-4.44-5.43-6.16l0-1.13c1-5.63,4.93-6.23,6.58-6.23h.37l1.76.49c5.87-3,10.4-8.67,13.48-17a58,58,0,0,0,1.19-8.4c0-10.57-4.9-18.89-14.87-25.43-4.9-2.28-9.34-3.43-13.21-3.43-10.44,0-18.6,4.9-25,15a31.21,31.21,0,0,0-3.35,13.52V317a7.46,7.46,0,0,1,1.95,4.82l0,.51c-1.07,5.59-4.95,6.19-6.57,6.19h-1l-.36-.1c-4.73-1.36-5.44-4.44-5.44-6.16v-.66A7,7,0,0,1,211.7,317V289.5c0-13.15,6.24-24.11,18.53-32.59l.25-.15c6.16-3.3,11.92-5,17.12-5h3c12,0,22.42,6,30.84,18l.17.27c3.52,6.5,5.31,12.83,5.31,18.8v3.1c0,10.32-4.82,19.94-14.33,28.59l-.41.31c-3,1.82-4.33,2.75-4.94,3.19-.41,1.58-1.74,3.52-5.6,4.45Zm-45-5.43h.24c.35,0,.83,0,1.16-1.45a3.66,3.66,0,0,0-1.12-1.66l-.15-.14-.21.2c-1.06,1-1.09,1.5-1.09,1.56v.66C215.18,322.65,215.81,322.94,216.35,323.12Zm43.29-1.24v.41c0,.35.59.64,1.12.82a4.28,4.28,0,0,0,1.26-.53,2.51,2.51,0,0,1,.6-1.62l-2.09-.58C260.2,320.44,259.88,320.72,259.64,321.88Z" transform="translate(-57.85 -222.01)"/><path class="a" d="M330.71,254.66h3q13.77,0,25.37,13.08,7.81,10.35,7.81,21.93v28.58a5.08,5.08,0,0,1,1.95,3.55v.66c-.65,2.36-1.81,3.55-3.47,3.55h-.65q-3.9-.78-3.9-4a5.49,5.49,0,0,1,1.95-3.77V307.4h-.22q-5.25,11.07-19.52,16.83A34.27,34.27,0,0,1,332.66,326h-1.08q-18.33,0-29.93-17.73-4.54-8.86-4.55-16.17V289q0-17.11,16.48-29.25Q322.58,254.66,330.71,254.66ZM301,290.34q0,15.12,12.8,25.47,8.44,6,17.13,6h1.52q17.07,0,27.11-17.06a33.72,33.72,0,0,0,3.25-14v-.89q0-17.55-16.7-27.69a33,33,0,0,0-14.1-3.55q-14.37,0-24.5,12.41A32.54,32.54,0,0,0,301,290.34Z" transform="translate(-57.85 -222.01)"/><path class="a" d="M365.41,328.72l-1.18-.05c-5.5-1.09-6.09-5-6.09-6.65a7.52,7.52,0,0,1,1.95-4.82V316a42,42,0,0,1-16,10.74l-.2.07a37.3,37.3,0,0,1-11.23,1.9h-1.08c-13.14,0-24-6.38-32.2-19l-.14-.25c-3.22-6.27-4.86-12.13-4.86-17.41V289c0-12.27,5.92-22.85,17.59-31.44l.27-.17c6.38-3.62,12.6-5.45,18.47-5.45h3c9.94,0,19.16,4.7,27.4,14l.14.17c5.54,7.36,8.35,15.29,8.35,23.57v27.49a7,7,0,0,1,1.95,4.64v1l-.09.35C370.17,328,367.12,328.72,365.41,328.72Zm-.36-5.43h.36c.25,0,.55-.59.76-1.23v-.26c0-.06,0-.57-1.1-1.57l-.21-.19-.14.14c-1,1-1.15,1.63-1.15,1.84C363.57,322.46,363.57,323,365.05,323.29Zm-49.61-9.64c5.12,3.6,10.33,5.43,15.49,5.43h1.52c10.4,0,18.48-5.1,24.69-15.6a30.89,30.89,0,0,0,2.95-12.7v-.89c0-10.74-5-19-15.27-25.3A30.39,30.39,0,0,0,332,261.37c-8.77,0-16.08,3.71-22.35,11.34a30.06,30.06,0,0,0-5.94,17.63C303.72,299.61,307.55,307.24,315.44,313.65Zm47.1-9h1.67v-4.75A39.58,39.58,0,0,1,362.54,304.68Z" transform="translate(-57.85 -222.01)"/><path class="a" d="M395.76,254.66h3q16.76,0,28.63,16.84,5,9.19,5,17.51v3.1q0,12-9.76,23Q411.86,326,397.93,326h-1.08q-17.46,0-28.84-16.62l-1.09-2h-.22v10.85a5.47,5.47,0,0,1,2,3.77q-.77,4-3.91,4h-.65q-3.47-1-3.47-3.55v-.66a5.08,5.08,0,0,1,1.95-3.55V289.67q0-18.39,17.35-30.35Q388.6,254.65,395.76,254.66ZM366.7,289.89v.89q0,17.45,16.7,27.69a31.7,31.7,0,0,0,13.67,3.33h1.52q14.36,0,24.72-14a34.19,34.19,0,0,0,5.2-17.5q0-17.34-16.26-27.92-8-3.76-14.53-3.77-17.09,0-27.33,16.4A33.78,33.78,0,0,0,366.7,289.89Z" transform="translate(-57.85 -222.01)"/><path class="a" d="M397.93,328.72h-1.08c-10.72,0-19.93-4.38-27.43-13.05v1.53a7.52,7.52,0,0,1,1.95,4.82l-.05.51c-1.06,5.59-4.95,6.19-6.57,6.19h-1l-.37-.1c-4.73-1.36-5.43-4.44-5.43-6.16v-.66a7,7,0,0,1,1.95-4.64V289.67c0-13.15,6.23-24.11,18.52-32.59l.26-.16c6.15-3.3,11.91-5,17.11-5h3c12.05,0,22.43,6.05,30.85,18l.16.27c3.53,6.5,5.32,12.83,5.32,18.8v3.1c0,8.62-3.51,17-10.44,24.83l-.11.12C416.89,324.8,407.93,328.72,397.93,328.72Zm-33.42-5.43h.24c.36,0,.83,0,1.17-1.45a3.58,3.58,0,0,0-1.13-1.66l-.14-.14-.21.19c-1.06,1-1.09,1.51-1.09,1.57v.66C363.35,322.82,364,323.11,364.51,323.29Zm20.19-7.21a29.1,29.1,0,0,0,12.37,3h1.52c8.7,0,16.05-4.17,22.45-12.74a31.57,31.57,0,0,0,4.76-16c0-10.62-4.87-19-14.88-25.54-4.89-2.28-9.33-3.43-13.2-3.43-10.44,0-18.6,4.9-25,15a31.29,31.29,0,0,0-3.35,13.53v.89C369.42,301.45,374.42,309.73,384.7,316.08Zm-19.4-11.4h1.59a30.75,30.75,0,0,1-1.59-4.3Z" transform="translate(-57.85 -222.01)"/><path class="a" d="M448.24,254.44h.22q3.9.72,3.9,3.55v.66a5.08,5.08,0,0,1-1.95,3.55v56.05a5.08,5.08,0,0,1,1.95,3.55V322q-.54,4-3.9,4h-.22q-3.9-.56-3.9-4v-.22a5.08,5.08,0,0,1,2-3.55V262.2a5.08,5.08,0,0,1-2-3.55V258Q444.34,255.16,448.24,254.44Z" transform="translate(-57.85 -222.01)"/><path class="a" d="M448.46,328.72l-.6,0c-4-.56-6.24-3-6.24-6.67v-.22a7,7,0,0,1,2-4.64V263.29a7,7,0,0,1-2-4.64V258c0-1.53.6-5.2,6.13-6.22l1,0,.24,0c5.53,1,6.13,4.69,6.13,6.22v.66a7,7,0,0,1-2,4.64v53.87a7,7,0,0,1,2,4.64l0,.58C454.27,328.1,450.18,328.72,448.46,328.72Zm0-5.43h0c.53,0,1,0,1.19-1.47v0c0-.06,0-.57-1.1-1.57l-.2-.19-.2.19c-1.07,1-1.1,1.51-1.1,1.57V322C447.05,322.62,447.05,323.06,448.45,323.29Zm-.1-66.1c-.86.2-1.3.47-1.3.8v.66c0,.06,0,.57,1.1,1.57l.2.19.2-.19c1.07-1,1.1-1.51,1.1-1.57V258C449.65,257.66,449.21,257.39,448.35,257.19Z" transform="translate(-57.85 -222.01)"/><path class="a" d="M498.06,254.66h3.47q14.1,0,25.81,13.52,7.36,10.35,7.37,20.38v3.55q0,14.4-13.23,26.36-10.14,7.54-20,7.54h-3.47q-14.1,0-25.81-13.52-7.37-10.35-7.37-20.38v-3.55q0-14.4,13.23-26.36Q488.25,254.67,498.06,254.66ZM469,288.78v3.11q0,13.07,11.93,23.48,8.67,6.44,17.35,6.43h3q12.8,0,23-12.19,6.3-8.87,6.29-17.72v-3.11q0-13.06-11.93-23.48-8.67-6.42-17.34-6.43h-3q-12.79,0-23,12.19Q469,279.93,469,288.78Z" transform="translate(-57.85 -222.01)"/><path class="a" d="M501.53,328.72h-3.47c-10.17,0-19.55-4.86-27.86-14.45l-.16-.2c-5.22-7.35-7.87-14.73-7.87-22v-3.55c0-10.35,4.75-19.9,14.12-28.38l.2-.16C483.7,254.66,491,252,498.06,252h3.47c10.18,0,19.55,4.86,27.86,14.45l.16.21c5.23,7.34,7.88,14.73,7.88,21.95v3.55c0,10.35-4.75,19.9-14.12,28.38l-.21.16C515.9,326,508.64,328.72,501.53,328.72Zm-18.9-15.46c5.25,3.86,10.51,5.82,15.65,5.82h3c7.72,0,14.54-3.64,20.83-11.13,3.8-5.38,5.73-10.79,5.73-16.06v-3.11c0-7.93-3.57-14.92-10.92-21.36-5.25-3.87-10.51-5.83-15.64-5.83h-3c-7.73,0-14.55,3.64-20.84,11.13-3.8,5.38-5.72,10.79-5.72,16.06v3.11C471.72,299.82,475.29,306.81,482.63,313.26Z" transform="translate(-57.85 -222.01)"/><path class="a" d="M184.81,324.59H145.55" transform="translate(-57.85 -222.01)"/><rect class="a" x="87.7" y="98.48" width="39.26" height="8.21"/><path class="b" d="M155.06,324a9.09,9.09,0,0,1-9.1,9.1,9.24,9.24,0,0,1-9.13-9.13,9.1,9.1,0,0,1,9.21-9.1A9,9,0,0,1,155.06,324Z" transform="translate(-57.85 -222.01)"/><path class="b" d="M373.76,323.28a9.11,9.11,0,0,1-9.11,9.1,9.24,9.24,0,0,1-9.13-9.13,9.12,9.12,0,0,1,9.21-9.11A9,9,0,0,1,373.76,323.28Z" transform="translate(-57.85 -222.01)"/><path class="b" d="M457.2,258.57a9.11,9.11,0,0,1-9.11,9.1,9.23,9.23,0,0,1-9.12-9.13,9.12,9.12,0,1,1,18.23,0Z" transform="translate(-57.85 -222.01)"/><path class="b" d="M269.89,323.12a9.11,9.11,0,0,1-9.11,9.1,9.24,9.24,0,0,1-9.13-9.14,9.12,9.12,0,0,1,9.21-9.1A9,9,0,0,1,269.89,323.12Z" transform="translate(-57.85 -222.01)"/><path class="a" d="M129.89,274.42q-10.3-15-25.39-17a16.35,16.35,0,0,1-.39,4.19,36.2,36.2,0,0,1,10,3.28q16.4,10.25,16.4,27.32,0,6.51-3.77,14.53Q116.21,323,98.87,323a59.92,59.92,0,0,1-9.08-1.3q-14.3-5.26-19.05-15.83l.66-2.39q0-3.19-4-3.9h-.66c-1.7,0-2.88,1.15-3.55,3.47v.65c.59,2.46,1.63,3.68,3.11,3.68q.5,0,4.21,6.08Q82.76,326.9,97.1,326.9h3.1q8.31,0,17.51-5,16.83-11.87,16.84-28.62v-3Q134.55,283.1,129.89,274.42Z" transform="translate(-57.85 -222.01)"/><path class="a" d="M100.2,329.62H97.1c-10.31,0-19.93-4.83-28.59-14.34l-.31-.41c-1.82-3-2.74-4.33-3.19-4.93-1.58-.41-3.52-1.75-4.45-5.61l-.07-.31v-1.36l.1-.36c1.36-4.73,4.44-5.44,6.16-5.44l1.14,0c5.62,1,6.23,4.93,6.23,6.58v.37l-.5,1.76c3,5.87,8.67,10.4,17,13.48a58,58,0,0,0,8.4,1.19c10.57,0,18.89-4.9,25.43-14.87a32,32,0,0,0,3.43-13.21c0-10.43-4.9-18.6-15-24.94a33.55,33.55,0,0,0-9.18-3l-2.86-.47.65-2.82a13.8,13.8,0,0,0,.32-3.48l-.11-3.22,3.2.43c10.8,1.48,20,7.59,27.26,18.16l.16.26c3.3,6.15,5,11.91,5,17.11v3c0,12-6,22.43-18,30.84l-.27.17C112.5,327.83,106.17,329.62,100.2,329.62ZM66.47,304.67a2.51,2.51,0,0,1,1.61.6l.59-2.09c-.07-.33-.34-.65-1.51-.89h-.41c-.35,0-.63.6-.82,1.12A3.8,3.8,0,0,0,66.47,304.67Z" transform="translate(-57.85 -222.01)"/><path class="a" d="M95,288.17c-1.1-.42-2.19-.89-3.3-1.43Q75.32,276.5,75.32,259.42q0-6.51,3.77-14.53Q89.67,228.63,107,228.62a59.74,59.74,0,0,1,9.09,1.31q14.28,5.25,19,15.83l-.66,2.38c0,2.14,1.32,3.44,4,3.91h.67q2.55,0,3.54-3.47v-.65q-.88-3.69-3.1-3.69c-.33,0-1.73-2-4.21-6.07q-12.24-13.46-26.59-13.45h-3.1q-8.31,0-17.5,5-16.85,11.86-16.84,28.62v3q0,7.15,4.65,15.83,7.53,10.92,17.59,15A15.18,15.18,0,0,1,95,288.17Z" transform="translate(-57.85 -222.01)"/><path class="a" d="M95.57,295.89l-3-1.21c-7.19-2.9-13.52-8.26-18.81-15.94l-.16-.25c-3.3-6.16-5-11.92-5-17.12v-3c0-12,6-22.42,18-30.84l.27-.17c6.5-3.53,12.82-5.31,18.79-5.31h3.1c10.32,0,19.94,4.82,28.6,14.33l.31.41c1.82,3,2.74,4.33,3.18,4.94,1.59.41,3.53,1.74,4.45,5.6l.08.31V249l-.11.37c-1.36,4.72-4.44,5.43-6.15,5.43l-1.14,0c-5.62-1-6.23-4.93-6.23-6.58v-.37l.49-1.76c-3-5.87-8.66-10.4-17-13.48a58,58,0,0,0-8.4-1.19c-10.57,0-18.89,4.9-25.44,14.87-2.27,4.9-3.43,9.34-3.43,13.21,0,10.44,4.91,18.6,15,24.95.93.44,1.9.86,3,1.26l2.83,1.09-1.39,2.7a12.52,12.52,0,0,0-1.19,3.29Zm43.15-46.56h.41c.35,0,.63-.59.81-1.12a3.77,3.77,0,0,0-.53-1.26,2.53,2.53,0,0,1-1.62-.6l-.58,2.09C137.28,248.77,137.55,249.1,138.72,249.33Z" transform="translate(-57.85 -222.01)"/><path class="b" d="M108,292.17a9.1,9.1,0,0,1-9.1,9.11,9.25,9.25,0,0,1-9.13-9.14A9.1,9.1,0,0,1,99,283,9,9,0,0,1,108,292.17Z" transform="translate(-57.85 -222.01)"/><path class="b" d="M116.12,258.46a9.11,9.11,0,0,1-9.11,9.1,9.23,9.23,0,0,1-9.12-9.14,9.12,9.12,0,1,1,18.23,0Z" transform="translate(-57.85 -222.01)"/><path class="b" d="M180.42,257.73a9.09,9.09,0,0,1-9.1,9.1,9.24,9.24,0,0,1-9.13-9.13,9.12,9.12,0,1,1,18.23,0Z" transform="translate(-57.85 -222.01)"/><path class="c" d="M457.39,323.28a9.09,9.09,0,0,1-9.1,9.1,9.24,9.24,0,0,1-9.13-9.13,9.11,9.11,0,0,1,9.21-9.11A9,9,0,0,1,457.39,323.28Z" transform="translate(-57.85 -222.01)"/><path class="c" d="M225.63,257.08a9.09,9.09,0,0,1-9.1,9.1A9.24,9.24,0,0,1,207.4,257a9.1,9.1,0,0,1,9.21-9.1A9,9,0,0,1,225.63,257.08Z" transform="translate(-57.85 -222.01)"/><path class="c" d="M225.31,323.28a9.09,9.09,0,0,1-9.1,9.1,9.24,9.24,0,0,1-9.13-9.13,9.11,9.11,0,0,1,9.21-9.11A9,9,0,0,1,225.31,323.28Z" transform="translate(-57.85 -222.01)"/><path class="c" d="M148.64,248a9.09,9.09,0,0,1-9.1,9.1,9.24,9.24,0,0,1-9.13-9.14,9.11,9.11,0,0,1,9.21-9.1A9,9,0,0,1,148.64,248Z" transform="translate(-57.85 -222.01)"/><path class="c" d="M76.08,304.11a9.11,9.11,0,0,1-9.1,9.1,9.24,9.24,0,0,1-9.13-9.13,9.12,9.12,0,1,1,18.23,0Z" transform="translate(-57.85 -222.01)"/></svg>