<?xml version="1.0" encoding="UTF-8" standalone="no"?>
<!-- Generator: Adobe Illustrator 22.0.0, SVG Export Plug-In . SVG Version: 6.00 Build 0)  -->

<svg
   xmlns:osb="http://www.openswatchbook.org/uri/2009/osb"
   xmlns:dc="http://purl.org/dc/elements/1.1/"
   xmlns:cc="http://creativecommons.org/ns#"
   xmlns:rdf="http://www.w3.org/1999/02/22-rdf-syntax-ns#"
   xmlns:svg="http://www.w3.org/2000/svg"
   xmlns="http://www.w3.org/2000/svg"
   xmlns:sodipodi="http://sodipodi.sourceforge.net/DTD/sodipodi-0.dtd"
   xmlns:inkscape="http://www.inkscape.org/namespaces/inkscape"
   version="1.1"
   id="Layer_1"
   x="0px"
   y="0px"
   viewBox="0 0 141.9044037 34.8423691"
   style="enable-background:new 0 0 141.9044037 34.8423691;"
   xml:space="preserve"
   sodipodi:docname="logo.svg"
   inkscape:version="0.92.4 (5da689c313, 2019-01-14)"><metadata
   id="metadata49"><rdf:RDF><cc:Work
       rdf:about=""><dc:format>image/svg+xml</dc:format><dc:type
         rdf:resource="http://purl.org/dc/dcmitype/StillImage" /></cc:Work></rdf:RDF></metadata><defs
   id="defs47"><linearGradient
     id="linearGradient4569"
     osb:paint="solid"><stop
       style="stop-color:#808080;stop-opacity:1;"
       offset="0"
       id="stop4567" /></linearGradient></defs><sodipodi:namedview
   pagecolor="#ffffff"
   bordercolor="#666666"
   borderopacity="1"
   objecttolerance="10"
   gridtolerance="10"
   guidetolerance="10"
   inkscape:pageopacity="0"
   inkscape:pageshadow="2"
   inkscape:window-width="2232"
   inkscape:window-height="1160"
   id="namedview45"
   showgrid="false"
   inkscape:zoom="4"
   inkscape:cx="-44.571785"
   inkscape:cy="26.750486"
   inkscape:window-x="123"
   inkscape:window-y="25"
   inkscape:window-maximized="0"
   inkscape:current-layer="Layer_1" />
<style
   type="text/css"
   id="style2">
	.st0{fill:none;}
	.st1{fill:#808080;}
	.st2{fill:#3C90CE;}
	.st3{fill:#EE6124;}
</style>
<title
   id="title4">Asset 1</title>


















<path
   style="fill:none"
   inkscape:connector-curvature="0"
   class="st0"
   d="m 118.92525,27.521366 c 1.16536,0.936743 2.60222,1.471848 4.09643,1.525568 h 0.79499 c 2.02336,0 3.80797,-0.953214 5.45536,-2.913914 0.92612,-1.211477 1.45034,-2.682174 1.4993,-4.20631 v -0.812145 c -0.0589,-2.200903 -1.10945,-4.257259 -2.85824,-5.59485 -1.16542,-0.936639 -2.60223,-1.471731 -4.09642,-1.525567 h -0.79499 c -2.02336,0 -3.80797,0.953214 -5.45535,2.913904 -0.92611,1.211567 -1.45032,2.682322 -1.49931,4.206513 v 0.812145 c 0.0588,2.200874 1.10937,4.25721 2.85823,5.594656 z"
   id="path6" /><path
   style="fill:none"
   inkscape:connector-curvature="0"
   class="st0"
   d="m 104.0445,21.520615 c 0,-2.780539 -1.27387,-4.968075 -3.89409,-6.686523 -1.074772,-0.544154 -2.254162,-0.850402 -3.457905,-0.897905 -2.732925,0 -4.869354,1.284369 -6.53109,3.926282 -0.451324,0.909105 -0.737114,1.89133 -0.843979,2.900659 0.01195,0.193972 0.02483,0.387801 0.02483,0.583334 v 1.279724 c 0.280098,2.323773 1.57679,4.174847 3.942406,5.635701 1.00808,0.497409 2.11377,0.765495 3.237717,0.785015 h 0.397667 c 2.279945,0 4.203544,-1.091664 5.879634,-3.337311 0.78278,-1.25956 1.21272,-2.706333 1.24481,-4.188976 z"
   id="path8" /><path
   style="fill:none"
   inkscape:connector-curvature="0"
   class="st0"
   d="m 82.843704,14.780005 c -1.042648,-0.523297 -2.187439,-0.811347 -3.353592,-0.843818 -2.311172,0.0053 -4.48262,1.107383 -5.85128,2.969739 -0.994827,1.334451 -1.540176,2.950355 -1.557419,4.614732 -0.01141,2.408156 1.129044,4.676671 3.068673,6.103972 1.170768,0.885515 2.589103,1.382814 4.05651,1.422302 h 0.397011 c 2.724564,0 4.839943,-1.33583 6.466332,-4.083996 0.35791,-0.775966 0.598472,-1.600837 0.713775,-2.447555 V 21.34646 c 0,-0.229946 0.0085,-0.456924 0.02304,-0.681749 -0.214195,-2.456402 -1.51384,-4.3883 -3.96305,-5.884706 z"
   id="path10" /><path
   d="m 37.15625,10.59375 c -1.31583,-0.01528 -2.394875,1.037685 -2.410156,2.353516 -1.11e-4,0.0093 -4e-6,0.01995 0,0.0293 -5.4e-5,0.07773 0.0039,0.155084 0.01172,0.232422 -0.193524,0.115801 -0.300293,0.157025 -0.490234,0.316408 -2.482176,2.153892 -3.753906,4.785602 -3.753906,7.486328 v 0.8125 c 0.04616,1.730963 0.525179,3.423216 1.392578,4.921875 l 0.04297,0.07031 c 0.668545,0.96636 1.464462,1.840737 2.363281,2.597656 h -1.611328 c 0.119369,0.29427 0.179382,0.608223 0.177734,0.925782 -0.0013,0.43149 -0.119087,0.855032 -0.341797,1.224609 l 8.13086,-0.03711 v 0 h 0.152343 c 1.577801,-0.06041 3.116234,-0.507771 4.480469,-1.302735 l 0.06836,-0.04102 c 0.475193,-0.327835 0.929226,-0.685507 1.361328,-1.06836 0.02311,-0.04799 0.05622,-0.08708 0.08203,-0.132812 -0.189951,0.33877 -0.308683,0.722887 -0.3125,1.138672 -5e-5,0.0055 1.5e-5,0.01013 0,0.01563 0.01455,1.314045 1.074638,2.377182 2.388672,2.392578 1.318367,0.0081 2.394249,-1.054678 2.402344,-2.373047 0.0059,-0.968185 -0.49816,-1.809858 -1.394532,-2.181641 0.136993,0.119531 0.220133,0.118324 0.312495,0.16797 V 21.9668 c 0.0031,-0.1054 0.0098,-0.209919 0.0098,-0.316406 v -0.583985 c 0.06583,-1.13031 0.36026,-2.235645 0.867188,-3.248047 1.661743,-2.642089 3.800628,-3.925781 6.533203,-3.925781 1.203643,0.04743 2.382404,0.354212 3.457031,0.898438 2.611812,1.712853 3.886139,3.890972 3.894531,6.658203 -0.05011,0.739874 -0.155189,1.474527 -0.3125,2.199219 -0.542763,1.737012 -1.666401,3.235286 -3.183594,4.240234 0.827694,0.337704 1.393101,1.114357 1.458985,2.005859 0.169807,-0.107839 0.369861,-0.2344 0.61914,-0.386719 l 0.109375,-0.08008 c 2.489991,-2.266962 3.751953,-4.7856 3.751953,-7.486328 v -0.8125 c -0.0462,-1.730915 -0.525421,-3.423134 -1.392578,-4.921875 l -0.04297,-0.07031 c -2.203666,-3.125172 -4.921447,-4.710941 -8.076201,-4.710941 -1.84993,0.03729 -3.818518,0.427085 -5.343751,1.343745 -0.524796,0.361209 -1.024658,0.75898 -1.496094,1.1875 -0.617764,1.146187 -2.047173,1.572841 -3.193359,0.955078 -0.0513,-0.02765 -0.101281,-0.05652 -0.150391,-0.08789 v 6.162109 c -0.0031,0.105261 -0.0098,0.210051 -0.0098,0.316406 v 0.583985 c -0.0657,1.130295 -0.360359,2.235622 -0.867187,3.248047 -1.662083,2.642089 -3.798496,3.925781 -6.53125,3.925781 -1.20364,-0.04745 -2.384354,-0.354235 -3.458985,-0.898438 -2.611617,-1.712844 -3.886123,-3.890987 -3.894531,-6.658203 0.05009,-0.739925 0.155278,-1.474457 0.3125,-2.199218 0.525318,-1.655869 1.569191,-3.098776 2.976563,-4.117188 0.282058,0.117623 0.583072,0.177894 0.888672,0.179688 1.315857,4.99e-4 2.384269,-1.064998 2.384765,-2.38086 v -0.002 c 0.01853,-1.302152 -1.022064,-2.3721 -2.324219,-2.390625 -0.01289,-1.83e-4 -0.02616,-2.9e-5 -0.03906,0 z m 9.81055,18.140625 c -31.3112,4.071996 -15.6556,2.035998 0,0 z"
   id="path12"
   style="fill:#3f87b6;fill-opacity:1;stroke:#22a1bd;stroke-width:0.05;stroke-miterlimit:4;stroke-dasharray:none;stroke-opacity:0"
   inkscape:connector-curvature="0"
   sodipodi:nodetypes="cccccscccccccccccccccccccccsccccccccccscccccccccsccccccccccccccc" /><path
   inkscape:connector-curvature="0"
   class="st1"
   d="m 105.05232,16.180252 c -2.20363,-3.125176 -4.9208,-4.7099 -8.075559,-4.7099 h -0.795342 c -1.577812,0.06034 -3.116577,0.507725 -4.480781,1.302754 l -0.06756,0.04113 c -1.45697,0.962241 -2.68148,2.236735 -3.584678,3.73102 -0.266449,-0.476056 -0.564789,-0.933542 -0.892983,-1.36933 l -0.03601,-0.04411 C 84.962685,12.702366 82.54866,11.470353 79.94455,11.470353 h -0.794991 c -1.708244,0.04887 -3.374535,0.540469 -4.835747,1.426677 l -0.07106,0.04603 c -3.055702,2.248791 -4.604713,5.017604 -4.604713,8.229419 v 0.812137 c 0.05761,1.598816 0.493072,3.161257 1.270721,4.559397 l 0.03746,0.06442 c 2.155327,3.292673 4.991532,4.962295 8.430527,4.962295 h 0.283897 c 0.999726,-0.01452 1.991311,-0.182283 2.940163,-0.497438 l 0.05147,-0.01838 c 1.149803,-0.450016 2.22345,-1.074411 3.183197,-1.851232 0.37954,-0.887442 1.255768,-1.459345 2.220917,-1.449564 0.900596,-0.0027 1.723312,0.510149 2.117485,1.319906 1.691551,1.620697 3.949249,2.516581 6.291816,2.496678 h 0.283547 c 2.647056,-0.01248 5.171621,-1.116877 6.977431,-3.052365 l 0.0291,-0.03115 c 1.6875,-1.752457 2.66159,-4.070742 2.73222,-6.502566 V 21.17248 c -0.0461,-1.730826 -0.52447,-3.422623 -1.39149,-4.921341 z m -18.268644,6.335131 c -0.115311,0.846717 -0.355865,1.671589 -0.713776,2.447555 -1.626396,2.748165 -3.741806,4.083996 -6.466339,4.083996 h -0.397003 c -1.467392,-0.0395 -2.885719,-0.536797 -4.056473,-1.422304 -1.939628,-1.427317 -3.080078,-3.695852 -3.068641,-6.104017 0.01724,-1.664359 0.562576,-3.280245 1.557388,-4.614687 1.36866,-1.862357 3.540108,-2.964446 5.85128,-2.969739 1.166153,0.03247 2.310944,0.320521 3.353592,0.843817 2.449181,1.496407 3.748825,3.428305 3.963013,5.884707 0.02041,0.658425 0.03946,1.214642 -0.02304,1.850672 z m 10.136376,6.531551 h -0.397667 c -1.123947,-0.01952 -2.229637,-0.287605 -3.237717,-0.785015 -2.365616,-1.460852 -3.662308,-3.311928 -3.942406,-5.6357 -0.0464,-0.643127 -0.05181,-1.226413 -0.02483,-1.863056 0.106865,-1.009329 0.392655,-1.991557 0.843979,-2.90066 1.661736,-2.641912 3.798165,-3.926283 6.53109,-3.926283 1.203743,0.0475 2.383133,0.353751 3.457909,0.897906 2.62022,1.718448 3.89409,3.905984 3.89409,6.686523 -0.0321,1.482651 -0.46202,2.929438 -1.24481,4.189007 -1.6761,2.245611 -3.599697,3.337278 -5.879642,3.337278 z"
   id="path14"
   style="fill:#3f87b6;fill-opacity:1;stroke:#22a1bd;stroke-width:0;stroke-miterlimit:4;stroke-dasharray:none;stroke-opacity:0"
   sodipodi:nodetypes="csccccccscccscccsccccccccccccccccscccccccccccccccccccc" /><path
   inkscape:connector-curvature="0"
   style="fill:#3f87b6;fill-opacity:1;stroke:#22a1bd;stroke-width:0;stroke-miterlimit:4;stroke-dasharray:none;stroke-opacity:0"
   d="m 111.19922,15.191406 c -0.75076,0.501838 -1.72263,0.527899 -2.5,0.06836 v 12.83789 c -0.71771,0.42824 -1.15719,1.203297 -1.15625,2.039063 0.0145,1.314035 1.0766,2.377163 2.39062,2.392578 1.32209,-0.0057 2.38854,-1.082209 2.38282,-2.404297 -0.004,-0.818361 -0.42492,-1.579176 -1.11719,-2.015625 z"
   id="path16" /><path
   inkscape:connector-curvature="0"
   class="st1"
   d="m 131.20924,15.307546 -0.042,-0.05321 c -2.17563,-2.510812 -4.62957,-3.783984 -7.29388,-3.783984 h -0.90841 c -2.06192,0.07252 -4.04424,0.81406 -5.64754,2.112615 l -0.0529,0.04324 c -2.45358,2.218656 -3.69735,4.718471 -3.69735,7.430221 v 0.92819 c 0.0666,2.085262 0.78795,4.096642 2.06186,5.748881 l 0.042,0.05321 c 2.17562,2.510822 4.62956,3.783993 7.29388,3.783993 h 0.90841 c 2.062,-0.07253 4.04442,-0.814001 5.64789,-2.11245 l 0.0529,-0.0434 c 2.45356,-2.219042 3.69734,-4.718825 3.69734,-7.43023 V 21.05641 c -0.0669,-2.085257 -0.78836,-4.096571 -2.06223,-5.748864 z M 116.067,21.114538 c 0.049,-1.524191 0.57321,-2.994945 1.49931,-4.206512 1.64739,-1.960691 3.432,-2.913905 5.45536,-2.913905 h 0.79499 c 1.49418,0.05384 2.93099,0.588928 4.09641,1.525568 1.7488,1.33759 2.79933,3.393946 2.85825,5.594849 v 0.812145 c -0.049,1.524136 -0.57318,2.994833 -1.4993,4.206311 -1.64739,1.960699 -3.432,2.913911 -5.45536,2.913911 h -0.79499 c -1.49422,-0.05372 -2.93106,-0.588823 -4.09642,-1.525566 -1.74888,-1.337448 -2.79944,-3.393796 -2.85825,-5.594682 z"
   id="path18"
   style="fill:#3f87b6;fill-opacity:1;stroke:#22a1bd;stroke-width:0;stroke-miterlimit:4;stroke-dasharray:none;stroke-opacity:0" /><path
   inkscape:connector-curvature="0"
   class="st2"
   d="m 32.879688,30.339928 c 0.0016,-0.31756 -0.05893,-0.632365 -0.178299,-0.926636 -0.360901,-0.888479 -1.225675,-1.468338 -2.184646,-1.464876 -1.315831,-0.01528 -2.394909,1.039024 -2.410189,2.354856 -1.09e-4,0.0093 -1.62e-4,0.0187 -1.6e-4,0.02805 0.01454,1.31403 1.07576,2.375956 2.389778,2.391378 1.314216,-0.0045 2.378603,-1.068523 2.383482,-2.382738 z"
   id="path20"
   style="opacity:1;vector-effect:none;fill:none;fill-opacity:1;stroke:#2a5ee9;stroke-width:1.4;stroke-linecap:butt;stroke-linejoin:round;stroke-miterlimit:4;stroke-dasharray:none;stroke-dashoffset:0;stroke-opacity:1;font-variant-east_asian:normal" /><path
   inkscape:connector-curvature="0"
   class="st2"
   d="m 88.056358,27.754087 c -1.314537,-0.01656 -2.393615,1.03566 -2.410179,2.350205 -1.37e-4,0.0109 -1.98e-4,0.0218 -1.83e-4,0.0327 0.01454,1.314031 1.07576,2.375957 2.389778,2.391376 1.315865,5.15e-4 2.382996,-1.06579 2.383507,-2.381651 0,-3.62e-4 0,-7.28e-4 0,-0.0011 0.0016,-0.371324 -0.08235,-0.738026 -0.245415,-1.07163 -0.394172,-0.809763 -1.216903,-1.3226 -2.117508,-1.319907 z"
   id="path22"
   style="opacity:1;vector-effect:none;fill:none;fill-opacity:1;stroke:#e6e92a;stroke-width:1.4;stroke-linecap:butt;stroke-linejoin:round;stroke-miterlimit:4;stroke-dasharray:none;stroke-dashoffset:0;stroke-opacity:1;font-variant-east_asian:normal" /><path
   inkscape:connector-curvature="0"
   class="st3"
   d="m 109.88226,15.587179 c 0.46871,0.0023 0.92741,-0.135589 1.31714,-0.395985 0.66493,-0.442623 1.06499,-1.187996 1.06634,-1.986777 0.0185,-1.302132 -1.02203,-2.372744 -2.32416,-2.391277 -0.0129,-1.84e-4 -0.0258,-2.61e-4 -0.0388,-2.34e-4 -1.3184,0.0015 -2.38599,1.071434 -2.38452,2.389837 0.001,1.308308 1.05571,2.371685 2.36396,2.384409 z"
   id="path24"
   style="opacity:1;vector-effect:none;fill:none;fill-opacity:1;stroke:#e92a2a;stroke-width:1.4;stroke-linecap:butt;stroke-linejoin:round;stroke-miterlimit:4;stroke-dasharray:none;stroke-dashoffset:0;stroke-opacity:1;font-variant-east_asian:normal" /><path
   inkscape:connector-curvature="0"
   class="st2"
   d="m 61.474167,27.887751 c -1.230122,-0.498177 -2.631184,0.09518 -3.12936,1.325302 -0.11351,0.280281 -0.173096,0.579471 -0.175637,0.881855 0.01454,1.314029 1.07576,2.375959 2.389778,2.391378 1.315857,5.04e-4 2.382977,-1.0658 2.383484,-2.381655 0,-3.6e-4 0,-7.22e-4 0,-0.0011 2.22e-4,-0.07074 -0.004,-0.140242 -0.0097,-0.209297 -0.06588,-0.891493 -0.630928,-1.668787 -1.458603,-2.0065 z"
   id="path26"
   style="opacity:1;vector-effect:none;fill:none;fill-opacity:1;stroke:#e92aa2;stroke-width:1.4;stroke-linecap:butt;stroke-linejoin:round;stroke-miterlimit:4;stroke-dasharray:none;stroke-dashoffset:0;stroke-opacity:1;font-variant-east_asian:normal" /><path
   inkscape:connector-curvature="0"
   class="st3"
   d="m 48.973126,15.195243 c 1.318405,-0.0014 2.386024,-1.071374 2.38459,-2.389781 -0.0014,-1.318407 -1.071373,-2.386025 -2.389779,-2.384593 -1.315757,0.0014 -2.382282,1.067239 -2.384594,2.382996 0.0066,0.823728 0.435147,1.586529 1.135251,2.020617 0.375042,0.238985 0.809829,0.36748 1.254532,0.370761 z"
   id="path32"
   style="opacity:1;vector-effect:none;fill:none;fill-opacity:1;stroke:#e9952a;stroke-width:1.4;stroke-linecap:butt;stroke-linejoin:round;stroke-miterlimit:4;stroke-dasharray:none;stroke-dashoffset:0;stroke-opacity:1;font-variant-east_asian:normal" /><path
   inkscape:connector-curvature="0"
   class="st1"
   d="M 28.185993,20.650104 C 27.993214,19.082958 27.4181,17.587244 26.511295,16.294645 l -0.04664,-0.06389 c -0.770659,-0.946713 -1.674307,-1.776877 -2.682833,-2.464667 7.63e-4,-0.07371 0.01878,-0.143439 0.01268,-0.218334 -0.0016,-0.01979 -0.0056,-0.03865 -0.0076,-0.05829 -0.12117,-1.288251 -1.258808,-2.237572 -2.547941,-2.126168 -1.312458,0.09536 -2.299116,1.23662 -2.203756,2.549079 6.77e-4,0.0093 0.0014,0.01863 0.0022,0.02793 0.124924,1.308157 1.271616,2.277151 2.582283,2.182116 0.292172,-0.02832 0.576283,-0.111994 0.83717,-0.246546 1.920971,1.193352 3.15364,3.235067 3.315,5.490768 0.0539,1.203358 -0.152151,2.4042 -0.604122,3.520758 -1.487335,2.74638 -3.551289,4.199205 -6.307867,4.440104 -0.74153,0.01227 -1.482964,-0.02963 -2.218384,-0.125401 -1.115706,-0.293203 -2.168221,-0.788429 -3.10537,-1.461124 0.170081,-1.280707 -0.730259,-2.456803 -2.010966,-2.626887 -0.175262,-0.02327 -0.352598,-0.0266 -0.528611,-0.0099 -1.3124379,0.09532 -2.2991008,1.236543 -2.2037744,2.548982 6.79e-4,0.0093 0.00141,0.01869 0.0022,0.02803 0.1248999,1.30816 1.2716184,2.277149 2.5822824,2.182056 0.01669,-0.0013 0.0328,-0.0048 0.04948,-0.0065 0.206021,-0.02274 0.408112,-0.07273 0.600978,-0.148656 1.841823,1.496061 4.17918,2.244249 6.547405,2.09583 l 0.80929,-0.06826 c 1.720938,-0.191484 3.366602,-0.810565 4.787043,-1.800836 l 0.06675,-0.04958 c 2.928932,-2.458656 4.279703,-5.299194 4.014589,-8.442947 z"
   id="path36"
   style="fill:#3f87b6;fill-opacity:1;stroke:#22a1bd;stroke-width:0;stroke-miterlimit:4;stroke-dasharray:none;stroke-opacity:0" /><path
   style="fill:#3f87b6;fill-opacity:1;stroke:#22a1bd;stroke-width:0;stroke-miterlimit:4;stroke-dasharray:none;stroke-opacity:0"
   d="m 19.064453,2.1191406 c -0.328938,-0.00161 -0.657986,0.01755 -0.988281,0.054687 l -0.806641,0.089844 c -1.714981,0.239305 -3.343973,0.9041413 -4.736328,1.9335937 l -0.06445,0.050781 C 9.6093454,6.7870807 8.3368931,9.6655645 8.6894531,12.800781 l 0.089844,0.789063 c 0.2363062,1.561154 0.8525114,3.039793 1.7949219,4.30664 l 0.04883,0.0625 c 1.023933,1.210099 2.277458,2.207377 3.6875,2.931641 0.0021,0.06253 -0.01087,0.122236 -0.0039,0.185547 0.01354,0.114355 0.03578,0.226881 0.06641,0.33789 0.312319,1.139065 1.400801,1.887732 2.576172,1.771485 1.307691,-0.14654 2.250057,-1.327074 2.103515,-2.634766 -0.1271,-1.296062 -1.282062,-2.244287 -2.578125,-2.117187 -0.01283,0.0013 -0.0243,0.0024 -0.03711,0.0039 -0.274103,0.01564 -0.843227,0.267135 -0.888672,0.283203 -2.640437,-1.351641 -4.081405,-3.285598 -4.376953,-5.914062 -0.08732,-1.201395 0.08514,-2.408409 0.505859,-3.5371098 1.41034,-2.786652 3.43479,-4.2957573 6.183594,-4.6132812 0.990881,-0.071915 1.658701,-0.049829 2.220703,0.064453 1.081886,0.2787122 3.126398,1.1518908 4.283203,2.3515625 0.0037,-0.2200103 0.03647,-0.4396024 0.09961,-0.6503906 C 24.680613,5.7629438 25.174759,5.233448 25.816406,4.9707031 23.632795,3.0904402 21.367017,2.1304068 19.064453,2.1191406 Z"
   id="path38"
   inkscape:connector-curvature="0"
   sodipodi:nodetypes="scccccccccccccccccccccccs" /><path
   inkscape:connector-curvature="0"
   class="st3"
   d="m 26.495274,4.778367 c -0.05491,0.00598 -0.108103,0.016319 -0.161612,0.025752 -0.177853,0.035663 -0.351103,0.091312 -0.516457,0.1658897 -0.641649,0.2627473 -1.135688,0.7938175 -1.351455,1.4527535 -0.06314,0.2107882 -0.09703,0.4292493 -0.100718,0.6492596 -0.008,0.1144323 -0.0076,0.2292995 0.0012,0.3436723 0.161288,1.3041635 1.334504,2.2408528 2.64201,2.109365 1.307659,-0.1464977 2.24897,-1.3253269 2.102472,-2.6329885 -4.2e-5,-3.719e-4 -8.4e-5,-7.439e-4 -1.26e-4,-0.00112 C 28.983504,5.5948581 27.82979,4.64719 26.533698,4.7742747 c -0.01282,0.00126 -0.02564,0.00262 -0.03844,0.00409 z"
   id="path42"
   style="fill:none;fill-opacity:1;stroke:#44e92a;stroke-width:1.4;stroke-miterlimit:4;stroke-dasharray:none;stroke-opacity:1;stroke-linejoin:round" />
</svg>