<svg xmlns="http://www.w3.org/2000/svg" viewBox="0 0 350.28078 81.15801"><defs><style>.a{fill:none;}.b{fill:gray;}.c{fill:#3c90ce;}.d{fill:#ee6124;}</style></defs><title>synapio_logo_outlines</title><path class="a" d="M491.53516,275.6499c3.833,2.82422,7.67773,4.25586,11.42773,4.25586h2.21777c5.64454,0,10.62305-2.65918,15.21875-8.1289a20.4,20.4,0,0,0,4.18262-11.73438v-2.26562c0-5.7959-2.6084-10.90235-7.97363-15.60791-3.834-2.82422-7.67871-4.25586-11.42774-4.25586h-2.21777c-5.64453,0-10.62305,2.65918-15.21875,8.1289a20.40258,20.40258,0,0,0-4.18262,11.73487v2.26562C483.56152,265.83887,486.16992,270.94531,491.53516,275.6499Z" transform="translate(-181.27586 -209.00195)"/><path class="a" d="M450.02246,258.90967c0-7.75684-3.55371-13.85938-10.86328-18.65332a23.39869,23.39869,0,0,0-9.64648-2.50489c-7.624,0-13.584,3.583-18.21973,10.95313a23.84277,23.84277,0,0,0-2.35443,8.09192c.03332.54114.06927,1.08185.06927,1.62732V261.994c.78137,6.4826,4.39875,11.64654,10.998,15.72186a21.24609,21.24609,0,0,0,9.03223,2.18994h1.10937c6.36035,0,11.72656-3.04541,16.40234-9.31006A23.08527,23.08527,0,0,0,450.02246,258.90967Z" transform="translate(-181.27586 -209.00195)"/><path class="a" d="M390.87891,240.10547a22.23616,22.23616,0,0,0-9.35547-2.354c-6.41016,0-11.75,2.71-16.32324,8.28467a21.91876,21.91876,0,0,0-4.34473,12.87354c0,6.77685,2.80078,12.34717,8.56055,17.02832a19.6351,19.6351,0,0,0,11.3164,3.96777h1.10742c7.60059,0,13.502-3.72656,18.03907-11.39306a24.04989,24.04989,0,0,0,1.99121-6.82795v-3.26092c0-.64148.02368-1.27466.06427-1.90186C401.337,249.66937,397.71136,244.28,390.87891,240.10547Z" transform="translate(-181.27586 -209.00195)"/><path class="b" d="M344.61426,243.88916C338.4668,235.1709,330.88672,230.75,322.08594,230.75h-2.21778a26.87087,26.87087,0,0,0-12.5,3.63428l-.1875.11474a39.50566,39.50566,0,0,0-4.17358,3.30841,6.577,6.577,0,0,1-9.33032,2.42212v17.19092c-.00867.29364-.02637.58411-.02637.8808v1.62964a23.25366,23.25366,0,0,1-2.4209,9.0603c-4.63672,7.37061-10.59765,10.95361-18.22119,10.95361a23.38919,23.38919,0,0,1-9.64551-2.50488c-7.28564-4.77832-10.84033-10.856-10.86377-18.57568a42.48355,42.48355,0,0,1,.86866-6.13721c1.97113-5.3053,4.7575-9.15686,8.30169-11.48712a6.7665,6.7665,0,0,1-4.15149-5.51727c-.32245.20117-.66821.41546-1.06622.65869l-.30127.22558c-6.94629,6.32471-10.46875,13.35108-10.46875,20.88526v2.26562a28.94853,28.94853,0,0,0,3.88379,13.72949l.12207.19727a36.96117,36.96117,0,0,0,6.58783,7.24316h-4.49182a6.78346,6.78346,0,0,1,.49731,2.58509,6.65554,6.65554,0,0,1-.95495,3.41491H274.0083v-.104h.42578a26.86927,26.86927,0,0,0,12.5-3.63428l.18848-.11474a39.87688,39.87688,0,0,0,3.80011-2.97663,6.71146,6.71146,0,0,1,9.70233-2.716V260.1543c.00873-.29395.02637-.58478.02637-.88184v-1.6297a23.25623,23.25623,0,0,1,2.42187-9.06024c4.63574-7.37061,10.59766-10.95361,18.22071-10.95361a23.38735,23.38735,0,0,1,9.6455,2.50488c7.28614,4.77832,10.84082,10.85644,10.86426,18.57617a42.45265,42.45265,0,0,1-.86914,6.13672c-2.07519,5.5882-5.0658,9.54163-8.884,11.82532a6.56834,6.56834,0,0,1,4.06915,5.59753c.47369-.30084,1.03644-.65222,1.73187-1.07715l.30078-.22558c6.94629-6.32422,10.46778-13.35108,10.46778-20.88526v-2.26562a28.95775,28.95775,0,0,0-3.88282-13.72949Z" transform="translate(-181.27586 -209.00195)"/><path class="b" d="M452.834,244.01172c-6.14746-8.71826-13.72753-13.13916-22.52832-13.13916h-2.21875a26.86446,26.86446,0,0,0-12.5,3.63428l-.18847.11474A32.81812,32.81812,0,0,0,405.39832,245.03a33.75472,33.75472,0,0,0-2.49109-3.82l-.10059-.12305c-6.0166-6.77734-12.751-10.21435-20.01562-10.21435h-2.21778a27.53252,27.53252,0,0,0-13.49023,3.98l-.19824.12842c-8.52442,6.27343-12.84571,13.99756-12.84571,22.95752v2.26562a28.26133,28.26133,0,0,0,3.54492,12.71924l.1045.17969c6.01269,9.18554,13.9248,13.84326,23.51855,13.84326h.792a27.27793,27.27793,0,0,0,8.20215-1.3877l.14356-.05127a33.55059,33.55059,0,0,0,8.88012-5.16436,6.66508,6.66508,0,0,1,6.19568-4.04383,6.54807,6.54807,0,0,1,5.90711,3.68213,25.06322,25.06322,0,0,0,17.55224,6.965h.791c7.30078,0,13.84961-2.86524,19.46484-8.51514l.08106-.08691c5.05761-5.74024,7.62207-11.84375,7.62207-18.14014v-2.26562a28.95727,28.95727,0,0,0-3.88184-13.729Zm-50.96386,14.41211v3.26092a24.04989,24.04989,0,0,1-1.99121,6.82795c-4.53711,7.6665-10.43848,11.39306-18.03907,11.39306h-1.10742A19.6351,19.6351,0,0,1,369.416,275.938c-5.75977-4.68115-8.56055-10.25147-8.56055-17.02832a21.91876,21.91876,0,0,1,4.34473-12.87354c4.57324-5.5747,9.91308-8.28467,16.32324-8.28467a22.23616,22.23616,0,0,1,9.35547,2.354c6.83245,4.1745,10.45807,9.5639,11.05548,16.4165C401.8938,257.14917,401.87012,257.78235,401.87012,258.42383Zm28.27734,21.48193h-1.10937a21.24609,21.24609,0,0,1-9.03223-2.18994c-6.5993-4.07532-10.21668-9.23926-10.998-15.72186v-3.57013c0-.54547-.036-1.08618-.06927-1.62732a23.84277,23.84277,0,0,1,2.35443-8.09192c4.63574-7.37012,10.5957-10.95313,18.21973-10.95313a23.39869,23.39869,0,0,1,9.64648,2.50489c7.30957,4.79394,10.86328,10.89648,10.86328,18.65332a23.08527,23.08527,0,0,1-3.47266,11.686C441.874,276.86035,436.50781,279.90576,430.14746,279.90576Z" transform="translate(-181.27586 -209.00195)"/><path class="b" d="M466.50714,276.29913a6.60951,6.60951,0,0,1,3.47528.99152V241.25256a6.55139,6.55139,0,0,1-6.97461.19306v35.81421A6.73249,6.73249,0,0,1,466.50714,276.29913Z" transform="translate(-181.27586 -209.00195)"/><path class="b" d="M525.80371,241.57715l-.11719-.14844c-6.06933-7.00439-12.915-10.55615-20.34765-10.55615h-2.53418c-5.19043,0-10.49121,1.98291-15.75489,5.89355l-.14746.12061c-6.84472,6.18945-10.31445,13.16308-10.31445,20.728v2.58935c0,5.27979,1.93457,10.67578,5.75195,16.0376l.11719.14844c6.06934,7.00439,12.915,10.55615,20.34766,10.55615h2.53418c5.19043,0,10.49218-1.98291,15.75586-5.89307l.14746-.12109c6.84472-6.19043,10.31445-13.16406,10.31445-20.728v-2.58935C531.55664,252.33643,529.62109,246.94043,525.80371,241.57715Zm-42.24219,16.19971a20.40258,20.40258,0,0,1,4.18262-11.73487c4.5957-5.46972,9.57422-8.1289,15.21875-8.1289h2.21777c3.749,0,7.59375,1.43164,11.42774,4.25586,5.36523,4.70556,7.97363,9.812,7.97363,15.60791v2.26562a20.4,20.4,0,0,1-4.18262,11.73438c-4.5957,5.46972-9.57421,8.1289-15.21875,8.1289h-2.21777c-3.75,0-7.59473-1.43164-11.42773-4.25586-5.36524-4.70459-7.97364-9.811-7.97364-15.60742Z" transform="translate(-181.27586 -209.00195)"/><path class="c" d="M252.28082,283.51282a6.78346,6.78346,0,0,0-.49731-2.58509,6.55257,6.55257,0,0,0-6.09448-4.08654,6.647,6.647,0,0,0-6.72413,6.64752,6.74633,6.74633,0,0,0,6.66675,6.6712,6.67187,6.67187,0,0,0,6.64917-6.64709Z" transform="translate(-181.27586 -209.00195)"/><path class="c" d="M405.42053,276.29913a6.64045,6.64045,0,0,0-6.72418,6.64753,6.74633,6.74633,0,0,0,6.66675,6.6712,6.64666,6.64666,0,0,0,6.64917-6.6471,6.7403,6.7403,0,0,0-.68463-2.9895A6.54807,6.54807,0,0,0,405.42053,276.29913Z" transform="translate(-181.27586 -209.00195)"/><path class="c" d="M466.308,242.35724a6.5561,6.5561,0,0,0,3.67444-1.10468,6.67164,6.67164,0,0,0,2.97473-5.54242,6.578,6.578,0,0,0-6.59179-6.67157,6.65949,6.65949,0,0,0-.05738,13.31867Z" transform="translate(-181.27586 -209.00195)"/><path class="c" d="M332.05054,276.672a6.70376,6.70376,0,0,0-9.21991,6.15728,6.7463,6.7463,0,0,0,6.66675,6.67121,6.64662,6.64662,0,0,0,6.64917-6.6471c.00061-.19732-.0113-.39123-.02686-.58386A6.56834,6.56834,0,0,0,332.05054,276.672Z" transform="translate(-181.27586 -209.00195)"/><path class="b" d="M239.27832,258.84814a26.8693,26.8693,0,0,0-3.63428-12.5l-.11474-.18847a31.97729,31.97729,0,0,0-11.7016-10.69837c.0011.055.00769.10846.00751.16382a6.66956,6.66956,0,0,1-3.58375,5.89978c.39826.16962.79657.33655,1.19483.52832,7.37012,4.63623,10.95312,10.59717,10.95312,18.22071a23.38915,23.38915,0,0,1-2.50488,9.6455c-4.77832,7.28565-10.85644,10.84034-18.57568,10.86377a42.48231,42.48231,0,0,1-6.13721-.86865c-5.16034-1.917-8.93158-4.61133-11.279-8.01764a6.61319,6.61319,0,0,1-5.82092,3.71442c.22583.36059.47229.75793.75421,1.21924l.22558.30127c6.32471,6.94628,13.35108,10.46875,20.88526,10.46875h2.26562a28.94853,28.94853,0,0,0,13.72949-3.88379l.19727-.12207c8.71826-6.148,13.13916-13.72754,13.13916-22.52881Z" transform="translate(-181.27586 -209.00195)"/><path class="b" d="M192.88965,250.44287a32.03229,32.03229,0,0,0,11.77209,10.74536,6.38651,6.38651,0,0,1-.07837-.95923,6.61541,6.61541,0,0,1,2.86878-5.46173c-.15936-.07281-.32312-.14276-.47949-.218-7.37061-4.63623-10.95313-10.59717-10.95313-18.22071a23.38927,23.38927,0,0,1,2.50488-9.6455c4.77832-7.28565,10.85645-10.84034,18.57569-10.86377a42.48215,42.48215,0,0,1,6.1372.86865c5.42029,2.01355,9.31049,4.88336,11.62385,8.53717a6.64864,6.64864,0,0,1,5.68273-3.905c-.27526-.43579-.59021-.94171-.96087-1.54822l-.22559-.30127c-6.32471-6.94629-13.35107-10.46875-20.88525-10.46875h-2.26563a28.94859,28.94859,0,0,0-13.72949,3.88379l-.19726.12256c-8.71827,6.14746-13.13917,13.72705-13.13917,22.52832v2.21777a26.86923,26.86923,0,0,0,3.63428,12.5Z" transform="translate(-181.27586 -209.00195)"/><path class="c" d="M204.58337,260.229a6.38651,6.38651,0,0,0,.07837.95923,6.76084,6.76084,0,0,0,6.58838,5.712,6.64665,6.64665,0,0,0,6.64917-6.6471,6.578,6.578,0,0,0-6.59179-6.67157,6.72362,6.72362,0,0,0-3.85535,1.18573A6.61541,6.61541,0,0,0,204.58337,260.229Z" transform="translate(-181.27586 -209.00195)"/><path class="c" d="M223.83521,235.62512c.00018-.05536-.00641-.10882-.00751-.16382a6.571,6.571,0,0,0-6.58423-6.50775,6.647,6.647,0,0,0-6.72418,6.64746,6.74631,6.74631,0,0,0,6.66681,6.67121,6.54937,6.54937,0,0,0,3.06536-.74732A6.66956,6.66956,0,0,0,223.83521,235.62512Z" transform="translate(-181.27586 -209.00195)"/><path class="c" d="M261.66937,241.23993a6.55066,6.55066,0,0,0,2.48273.50452,6.64666,6.64666,0,0,0,6.64917-6.6471,6.57808,6.57808,0,0,0-6.5918-6.67163,6.647,6.647,0,0,0-6.72412,6.64752,6.40989,6.40989,0,0,0,.03253.64942A6.7665,6.7665,0,0,0,261.66937,241.23993Z" transform="translate(-181.27586 -209.00195)"/><path class="d" d="M469.98242,277.29065a6.60951,6.60951,0,0,0-3.47528-.99152,6.73249,6.73249,0,0,0-3.49933.9607,6.61353,6.61353,0,0,0-3.22485,5.68683,6.74635,6.74635,0,0,0,6.66681,6.6712,6.67815,6.67815,0,0,0,3.53265-12.32721Z" transform="translate(-181.27586 -209.00195)"/><path class="d" d="M297.17651,241.26385a6.65952,6.65952,0,1,0-6.66674-6.6712,6.69548,6.69548,0,0,0,3.167,5.6369A6.60312,6.60312,0,0,0,297.17651,241.26385Z" transform="translate(-181.27586 -209.00195)"/><path class="d" d="M297,276.29913a6.663,6.663,0,0,0-6.72412,6.64753,6.74629,6.74629,0,0,0,6.66675,6.6712A6.65944,6.65944,0,1,0,297,276.29913Z" transform="translate(-181.27586 -209.00195)"/><path class="d" d="M234.86115,225.22516a6.66388,6.66388,0,0,0-.58527,2.7215,6.74629,6.74629,0,0,0,6.66675,6.6712,6.64666,6.64666,0,0,0,6.64917-6.6471A6.57808,6.57808,0,0,0,241,221.29913c-.15411-.00048-.30475.0116-.45612.02106A6.64864,6.64864,0,0,0,234.86115,225.22516Z" transform="translate(-181.27586 -209.00195)"/><path class="d" d="M193.90265,271.89691a6.66092,6.66092,0,0,0,.68915-2.92615A6.57808,6.57808,0,0,0,188,262.29913a6.64692,6.64692,0,0,0-6.72412,6.64753,6.74629,6.74629,0,0,0,6.66675,6.6712c.04693.00018.0924-.00574.1391-.00653A6.61319,6.61319,0,0,0,193.90265,271.89691Z" transform="translate(-181.27586 -209.00195)"/></svg>