<?xml version="1.0" encoding="utf-8"?>
<!-- Generator: Adobe Illustrator 22.0.0, SVG Export Plug-In . SVG Version: 6.00 Build 0)  -->
<svg version="1.1" id="Layer_1" xmlns="http://www.w3.org/2000/svg" xmlns:xlink="http://www.w3.org/1999/xlink" x="0px" y="0px"
	 viewBox="0 0 595.3 841.9" style="enable-background:new 0 0 595.3 841.9;" xml:space="preserve">
<style type="text/css">
	.st0{fill:#808080;}
	.st1{fill:#3C90CE;}
	.st2{fill:#EE6124;}
</style>
<g>
	<g>
		<g>
			<g>
				<path class="st0" d="M185.4,325.8h-3c-11.2,0-20.7-5.6-28.6-16.8c-3.3-6.1-5-12-5-17.5v-3.1c0-9.6,4.5-18.4,13.4-26.6
					c4-2.5,6.1-3.9,6.1-4.2c0-1.5,1.2-2.5,3.7-3.1h0.7c2.3,0.7,3.5,1.8,3.5,3.5v0.7c-0.5,2.7-1.8,4-3.9,4l-2.4-0.7
					c-7,3.2-12.3,9.5-15.8,19.1c-0.6,2.4-1,5.4-1.3,9.1c0,11.6,5.4,20.9,16.3,27.9c5.3,2.5,10.2,3.8,14.5,3.8
					c11.4,0,20.5-5.5,27.3-16.4c2.5-5.1,3.7-10,3.7-14.8v-28.4c-1.3-1.3-2-2.5-2-3.8c0.5-2.7,1.8-4,3.9-4h0.7
					c2.3,0.7,3.5,1.8,3.5,3.5v0.7c0,1.1-0.7,2.3-2,3.5v28.6c0,12.3-5.8,22.4-17.3,30.4C195.4,324.3,190.2,325.8,185.4,325.8z"/>
				<path class="st0" d="M185.4,328.6h-3c-12.1,0-22.4-6.1-30.8-18l-0.2-0.3c-3.5-6.5-5.3-12.8-5.3-18.8v-3.1
					c0-10.3,4.8-19.9,14.3-28.6l0.4-0.3c3-1.8,4.3-2.7,4.9-3.2c0.4-1.6,1.7-3.5,5.6-4.4l0.3-0.1h1.4l0.4,0.1
					c4.7,1.4,5.4,4.4,5.4,6.2l0,1.1c-1,5.6-4.9,6.2-6.6,6.2h-0.4l-1.8-0.5c-5.9,3-10.4,8.7-13.5,17c-0.5,2.2-0.9,5-1.2,8.4
					c0,10.6,4.9,18.9,14.9,25.4c4.9,2.3,9.3,3.4,13.2,3.4c10.4,0,18.6-4.9,24.9-15c2.2-4.6,3.4-9.2,3.4-13.5v-27.3
					c-1.3-1.6-2-3.2-2-4.8l0-0.5c1.1-5.6,4.9-6.2,6.6-6.2h1l0.4,0.1c4.7,1.4,5.4,4.4,5.4,6.2v0.7c0,1.6-0.7,3.2-2,4.6v27.5
					c0,13.1-6.2,24.1-18.5,32.6l-0.3,0.2C196.4,326.9,190.6,328.6,185.4,328.6z M215.2,258.7c0.1,0.3,0.3,0.8,1.1,1.7l0.1,0.1
					l0.2-0.2c1.1-1,1.1-1.5,1.1-1.6V258c0-0.4-0.6-0.6-1.2-0.8h-0.2C216.1,257.2,215.6,257.2,215.2,258.7z M170.4,259.4l2.1,0.6
					c0.3-0.1,0.7-0.3,0.9-1.5V258c0-0.3-0.6-0.6-1.1-0.8c-0.8,0.2-1.1,0.4-1.3,0.5C171,258.3,170.8,258.8,170.4,259.4z"/>
			</g>
			<g>
				<path class="st0" d="M247.6,254.5h3c11.2,0,20.7,5.6,28.6,16.8c3.3,6.1,5,12,5,17.5v3.1c0,9.6-4.5,18.4-13.4,26.6
					c-4,2.5-6.1,3.9-6.1,4.2c0,1.5-1.2,2.5-3.7,3.1h-0.7c-2.3-0.7-3.5-1.8-3.5-3.5v-0.7c0.5-2.7,1.8-4,3.9-4l2.4,0.7
					c7-3.2,12.3-9.5,15.8-19.1c0.6-2.4,1-5.4,1.3-9.1c0-11.6-5.4-20.9-16.3-27.9c-5.3-2.5-10.2-3.8-14.5-3.8
					c-11.4,0-20.5,5.5-27.3,16.4c-2.5,5.1-3.7,10-3.7,14.8v28.4c1.3,1.3,2,2.5,2,3.8c-0.5,2.7-1.8,4-3.9,4h-0.7
					c-2.3-0.7-3.5-1.8-3.5-3.5v-0.7c0-1.1,0.7-2.3,2-3.5v-28.6c0-12.3,5.8-22.4,17.3-30.4C237.6,256,242.8,254.5,247.6,254.5z"/>
				<path class="st0" d="M261.4,328.6H260l-0.4-0.1c-4.7-1.4-5.4-4.4-5.4-6.2l0-1.1c1-5.6,4.9-6.2,6.6-6.2h0.4l1.8,0.5
					c5.9-3,10.4-8.7,13.5-17c0.5-2.2,0.9-5,1.2-8.4c0-10.6-4.9-18.9-14.9-25.4c-4.9-2.3-9.3-3.4-13.2-3.4c-10.4,0-18.6,4.9-24.9,15
					c-2.2,4.6-3.4,9.2-3.4,13.5V317c1.3,1.6,2,3.2,2,4.8l0,0.5c-1.1,5.6-4.9,6.2-6.6,6.2h-1l-0.4-0.1c-4.7-1.4-5.4-4.4-5.4-6.2v-0.7
					c0-1.6,0.7-3.2,2-4.6v-27.5c0-13.1,6.2-24.1,18.5-32.6l0.3-0.2c6.2-3.3,11.9-5,17.1-5h3c12,0,22.4,6.1,30.8,18l0.2,0.3
					c3.5,6.5,5.3,12.8,5.3,18.8v3.1c0,10.3-4.8,19.9-14.3,28.6l-0.4,0.3c-3,1.8-4.3,2.7-4.9,3.2c-0.4,1.6-1.7,3.5-5.6,4.4
					L261.4,328.6z M216.3,323.1h0.2c0.4,0,0.8,0,1.2-1.5c-0.1-0.3-0.3-0.8-1.1-1.7l-0.1-0.1l-0.2,0.2c-1.1,1-1.1,1.5-1.1,1.6v0.7
					C215.2,322.7,215.8,322.9,216.3,323.1z M259.6,321.9v0.4c0,0.3,0.6,0.6,1.1,0.8c0.8-0.2,1.1-0.4,1.3-0.5c0-0.6,0.2-1.1,0.6-1.6
					l-2.1-0.6C260.2,320.4,259.9,320.7,259.6,321.9z"/>
			</g>
			<g>
				<path class="st0" d="M330.7,254.7h3c9.2,0,17.6,4.4,25.4,13.1c5.2,6.9,7.8,14.2,7.8,21.9v28.6c1.3,1.2,2,2.4,2,3.5v0.7
					c-0.7,2.4-1.8,3.5-3.5,3.5h-0.7c-2.6-0.5-3.9-1.8-3.9-4c0-1.2,0.7-2.5,2-3.8v-10.9h-0.2c-3.5,7.4-10,13-19.5,16.8
					c-3.7,1.2-7.2,1.8-10.4,1.8h-1.1c-12.2,0-22.2-5.9-29.9-17.7c-3-5.9-4.6-11.3-4.6-16.2V289c0-11.4,5.5-21.2,16.5-29.2
					C319.6,256.4,325.3,254.7,330.7,254.7z M301,290.3c0,10.1,4.3,18.6,12.8,25.5c5.6,4,11.3,6,17.1,6h1.5
					c11.4,0,20.4-5.7,27.1-17.1c2.2-4.8,3.3-9.4,3.3-14v-0.9c0-11.7-5.6-20.9-16.7-27.7c-5-2.4-9.7-3.5-14.1-3.5
					c-9.6,0-17.7,4.1-24.5,12.4C303.2,277.1,301,283.5,301,290.3z"/>
				<path class="st0" d="M365.4,328.7l-1.2-0.1c-5.5-1.1-6.1-5-6.1-6.7c0-1.6,0.7-3.3,2-4.8V316c-4,4.4-9.3,8-16,10.7l-0.2,0.1
					c-4,1.3-7.7,1.9-11.2,1.9h-1.1c-13.1,0-24-6.4-32.2-19l-0.1-0.2c-3.2-6.3-4.9-12.1-4.9-17.4V289c0-12.3,5.9-22.8,17.6-31.4
					l0.3-0.2c6.4-3.6,12.6-5.4,18.5-5.4h3c9.9,0,19.2,4.7,27.4,14l0.1,0.2c5.5,7.4,8.4,15.3,8.4,23.6v27.5c1.3,1.5,2,3,2,4.6v1
					l-0.1,0.4C370.2,328,367.1,328.7,365.4,328.7z M365,323.3h0.4c0.3,0,0.5-0.6,0.8-1.2v-0.3c0-0.1,0-0.6-1.1-1.6l-0.2-0.2
					l-0.1,0.1c-1,1-1.2,1.6-1.2,1.8C363.6,322.5,363.6,323,365,323.3z M315.4,313.6c5.1,3.6,10.3,5.4,15.5,5.4h1.5
					c10.4,0,18.5-5.1,24.7-15.6c2-4.3,2.9-8.6,2.9-12.7v-0.9c0-10.7-5-19-15.3-25.3c-4.6-2.1-8.9-3.2-12.8-3.2
					c-8.8,0-16.1,3.7-22.3,11.3c-3.9,5.5-5.9,11.5-5.9,17.6C303.7,299.6,307.6,307.2,315.4,313.6z M362.5,304.7h1.7v-4.8
					C363.8,301.5,363.2,303.1,362.5,304.7z"/>
			</g>
			<g>
				<path class="st0" d="M395.8,254.7h3c11.2,0,20.7,5.6,28.6,16.8c3.3,6.1,5,12,5,17.5v3.1c0,8-3.3,15.7-9.8,23
					c-7.2,7.2-15.4,10.9-24.7,10.9h-1.1c-11.6,0-21.3-5.5-28.8-16.6l-1.1-2h-0.2v10.9c1.3,1.3,2,2.5,2,3.8c-0.5,2.7-1.8,4-3.9,4
					h-0.7c-2.3-0.7-3.5-1.8-3.5-3.5v-0.7c0-1.1,0.7-2.3,2-3.5v-28.6c0-12.3,5.8-22.4,17.3-30.4C385.7,256.2,391,254.7,395.8,254.7z
					 M366.7,289.9v0.9c0,11.6,5.6,20.9,16.7,27.7c4.7,2.2,9.2,3.3,13.7,3.3h1.5c9.6,0,17.8-4.7,24.7-14c3.5-5.9,5.2-11.7,5.2-17.5
					c0-11.6-5.4-20.9-16.3-27.9c-5.4-2.5-10.2-3.8-14.5-3.8c-11.4,0-20.5,5.5-27.3,16.4C367.9,280.1,366.7,285.1,366.7,289.9z"/>
				<path class="st0" d="M397.9,328.7h-1.1c-10.7,0-19.9-4.4-27.4-13v1.5c1.3,1.6,2,3.2,2,4.8l0,0.5c-1.1,5.6-4.9,6.2-6.6,6.2h-1
					l-0.4-0.1c-4.7-1.4-5.4-4.4-5.4-6.2v-0.7c0-1.6,0.7-3.2,2-4.6v-27.5c0-13.1,6.2-24.1,18.5-32.6l0.3-0.2c6.2-3.3,11.9-5,17.1-5h3
					c12,0,22.4,6.1,30.8,18l0.2,0.3c3.5,6.5,5.3,12.8,5.3,18.8v3.1c0,8.6-3.5,17-10.4,24.8l-0.1,0.1
					C416.9,324.8,407.9,328.7,397.9,328.7z M364.5,323.3h0.2c0.4,0,0.8,0,1.2-1.5c-0.1-0.3-0.3-0.8-1.1-1.7l-0.1-0.1l-0.2,0.2
					c-1.1,1-1.1,1.5-1.1,1.6v0.7C363.3,322.8,364,323.1,364.5,323.3z M384.7,316.1c4.2,2,8.4,3,12.4,3h1.5c8.7,0,16.1-4.2,22.5-12.7
					c3.2-5.4,4.8-10.8,4.8-16c0-10.6-4.9-19-14.9-25.5c-4.9-2.3-9.3-3.4-13.2-3.4c-10.4,0-18.6,4.9-24.9,15
					c-2.2,4.6-3.4,9.2-3.4,13.5v0.9C369.4,301.5,374.4,309.7,384.7,316.1z M365.3,304.7h1.6c-0.6-1.4-1.2-2.8-1.6-4.3V304.7z"/>
			</g>
			<g>
				<path class="st0" d="M448.2,254.4h0.2c2.6,0.5,3.9,1.7,3.9,3.5v0.7c0,1.1-0.7,2.3-2,3.5v56.1c1.3,1.2,2,2.4,2,3.5v0.2
					c-0.4,2.7-1.7,4-3.9,4h-0.2c-2.6-0.4-3.9-1.7-3.9-4v-0.2c0-1.1,0.6-2.3,2-3.5v-56.1c-1.3-1.2-2-2.4-2-3.5V258
					C444.3,256.1,445.6,254.9,448.2,254.4z"/>
				<path class="st0" d="M448.5,328.7l-0.6,0c-4-0.6-6.2-3-6.2-6.7v-0.2c0-1.6,0.7-3.2,2-4.6v-53.9c-1.3-1.5-2-3-2-4.6V258
					c0-1.5,0.6-5.2,6.1-6.2l1,0l0.2,0c5.5,1,6.1,4.7,6.1,6.2v0.7c0,1.6-0.7,3.2-2,4.6v53.9c1.3,1.5,2,3,2,4.6l0,0.6
					C454.3,328.1,450.2,328.7,448.5,328.7z M448.4,323.3L448.4,323.3c0.5,0,1,0,1.2-1.5v0c0-0.1,0-0.6-1.1-1.6l-0.2-0.2l-0.2,0.2
					c-1.1,1-1.1,1.5-1.1,1.6v0.2C447.1,322.6,447.1,323.1,448.4,323.3z M448.3,257.2c-0.9,0.2-1.3,0.5-1.3,0.8v0.7
					c0,0.1,0,0.6,1.1,1.6l0.2,0.2l0.2-0.2c1.1-1,1.1-1.5,1.1-1.6V258C449.6,257.7,449.2,257.4,448.3,257.2z"/>
			</g>
			<g>
				<path class="st0" d="M498.1,254.7h3.5c9.4,0,18,4.5,25.8,13.5c4.9,6.9,7.4,13.7,7.4,20.4v3.5c0,9.6-4.4,18.4-13.2,26.4
					c-6.8,5-13.4,7.5-20,7.5h-3.5c-9.4,0-18-4.5-25.8-13.5c-4.9-6.9-7.4-13.7-7.4-20.4v-3.5c0-9.6,4.4-18.4,13.2-26.4
					C484.9,257.2,491.5,254.7,498.1,254.7z M469,288.8v3.1c0,8.7,4,16.5,11.9,23.5c5.8,4.3,11.6,6.4,17.3,6.4h3
					c8.5,0,16.2-4.1,23-12.2c4.2-5.9,6.3-11.8,6.3-17.7v-3.1c0-8.7-4-16.5-11.9-23.5c-5.8-4.3-11.6-6.4-17.3-6.4h-3
					c-8.5,0-16.2,4.1-23,12.2C471.1,277,469,282.9,469,288.8z"/>
				<path class="st0" d="M501.5,328.7h-3.5c-10.2,0-19.5-4.9-27.9-14.5l-0.2-0.2c-5.2-7.3-7.9-14.7-7.9-22v-3.5
					c0-10.4,4.8-19.9,14.1-28.4l0.2-0.2c7.2-5.4,14.5-8.1,21.6-8.1h3.5c10.2,0,19.5,4.9,27.9,14.5l0.2,0.2c5.2,7.3,7.9,14.7,7.9,22
					v3.5c0,10.4-4.8,19.9-14.1,28.4l-0.2,0.2C515.9,326,508.6,328.7,501.5,328.7z M482.6,313.3c5.2,3.9,10.5,5.8,15.6,5.8h3
					c7.7,0,14.5-3.6,20.8-11.1c3.8-5.4,5.7-10.8,5.7-16.1v-3.1c0-7.9-3.6-14.9-10.9-21.4c-5.2-3.9-10.5-5.8-15.6-5.8h-3
					c-7.7,0-14.5,3.6-20.8,11.1c-3.8,5.4-5.7,10.8-5.7,16.1v3.1C471.7,299.8,475.3,306.8,482.6,313.3z"/>
			</g>
		</g>
	</g>
	<g>
		<path class="st0" d="M184.8,324.6h-39.3"/>
		<rect x="145.6" y="320.5" class="st0" width="39.3" height="8.2"/>
	</g>
	<g>
		<path class="st1" d="M155.1,324c0,5-4.1,9.1-9.1,9.1c-5,0-9.1-4.2-9.1-9.1c0-5.1,4.1-9.1,9.2-9.1
			C151.1,314.9,155.1,318.9,155.1,324z"/>
	</g>
	<g>
		<path class="st1" d="M373.8,323.3c0,5-4.1,9.1-9.1,9.1c-5,0-9.1-4.2-9.1-9.1c0-5.1,4.1-9.1,9.2-9.1
			C369.8,314.2,373.8,318.2,373.8,323.3z"/>
	</g>
	<g>
		<path class="st1" d="M457.2,258.6c0,5-4.1,9.1-9.1,9.1c-5,0-9.1-4.2-9.1-9.1c0-5.1,4.1-9.1,9.2-9.1
			C453.2,249.5,457.2,253.5,457.2,258.6z"/>
	</g>
	<g>
		<path class="st1" d="M269.9,323.1c0,5-4.1,9.1-9.1,9.1c-5,0-9.1-4.2-9.1-9.1c0-5.1,4.1-9.1,9.2-9.1
			C265.9,314,269.9,318,269.9,323.1z"/>
	</g>
	<g>
		<path class="st0" d="M129.9,274.4c-6.9-10-15.3-15.6-25.4-17c0.1,1.5-0.1,2.9-0.4,4.2c3.3,0.5,6.7,1.6,10.1,3.3
			c10.9,6.8,16.4,15.9,16.4,27.3c0,4.3-1.3,9.2-3.8,14.5c-7.1,10.8-16.4,16.3-27.9,16.3c-3.7-0.3-6.7-0.7-9.1-1.3
			c-9.5-3.5-15.9-8.8-19.1-15.8l0.7-2.4c0-2.1-1.3-3.4-4-3.9h-0.7c-1.7,0-2.9,1.2-3.5,3.5v0.7c0.6,2.5,1.6,3.7,3.1,3.7
			c0.3,0,1.7,2,4.2,6.1c8.2,9,17,13.4,26.6,13.4h3.1c5.5,0,11.4-1.7,17.5-5c11.2-7.9,16.8-17.5,16.8-28.6v-3
			C134.5,285.5,133,280.2,129.9,274.4z"/>
		<path class="st0" d="M100.2,329.6h-3.1c-10.3,0-19.9-4.8-28.6-14.3l-0.3-0.4c-1.8-3-2.7-4.3-3.2-4.9c-1.6-0.4-3.5-1.7-4.4-5.6
			l-0.1-0.3v-1.4l0.1-0.4c1.4-4.7,4.4-5.4,6.2-5.4l1.1,0c5.6,1,6.2,4.9,6.2,6.6v0.4l-0.5,1.8c3,5.9,8.7,10.4,17,13.5
			c2.2,0.5,5,0.9,8.4,1.2c10.6,0,18.9-4.9,25.4-14.9c2.3-4.9,3.4-9.3,3.4-13.2c0-10.4-4.9-18.6-15-24.9c-3.1-1.5-6.2-2.5-9.2-3
			l-2.9-0.5l0.7-2.8c0.3-1.1,0.4-2.3,0.3-3.5l-0.1-3.2l3.2,0.4c10.8,1.5,20,7.6,27.3,18.2l0.2,0.3c3.3,6.2,5,11.9,5,17.1v3
			c0,12.1-6.1,22.4-18,30.8l-0.3,0.2C112.5,327.8,106.2,329.6,100.2,329.6z M66.5,304.7c0.6,0,1.1,0.2,1.6,0.6l0.6-2.1
			c-0.1-0.3-0.3-0.7-1.5-0.9h-0.4c-0.3,0-0.6,0.6-0.8,1.1C66.1,304.2,66.4,304.5,66.5,304.7z"/>
	</g>
	<g>
		<path class="st0" d="M95,288.2c-1.1-0.4-2.2-0.9-3.3-1.4c-10.9-6.8-16.4-15.9-16.4-27.3c0-4.3,1.3-9.2,3.8-14.5
			c7.1-10.8,16.4-16.3,27.9-16.3c3.7,0.3,6.7,0.7,9.1,1.3c9.5,3.5,15.9,8.8,19.1,15.8l-0.7,2.4c0,2.1,1.3,3.4,4,3.9h0.7
			c1.7,0,2.9-1.2,3.5-3.5v-0.7c-0.6-2.5-1.6-3.7-3.1-3.7c-0.3,0-1.7-2-4.2-6.1c-8.2-9-17-13.4-26.6-13.4h-3.1
			c-5.5,0-11.4,1.7-17.5,5c-11.2,7.9-16.8,17.5-16.8,28.6v3c0,4.8,1.6,10,4.7,15.8c5,7.3,10.9,12.3,17.6,15
			C93.9,290.7,94.4,289.4,95,288.2z"/>
		<path class="st0" d="M95.6,295.9l-3-1.2c-7.2-2.9-13.5-8.3-18.8-15.9l-0.2-0.3c-3.3-6.2-5-11.9-5-17.1v-3c0-12.1,6.1-22.4,18-30.8
			l0.3-0.2c6.5-3.5,12.8-5.3,18.8-5.3h3.1c10.3,0,19.9,4.8,28.6,14.3l0.3,0.4c1.8,3,2.7,4.3,3.2,4.9c1.6,0.4,3.5,1.7,4.4,5.6
			l0.1,0.3v1.4l-0.1,0.4c-1.4,4.7-4.4,5.4-6.2,5.4l-1.1,0c-5.6-1-6.2-4.9-6.2-6.6v-0.4l0.5-1.8c-3-5.9-8.7-10.4-17-13.5
			c-2.2-0.5-5-0.9-8.4-1.2c-10.6,0-18.9,4.9-25.4,14.9c-2.3,4.9-3.4,9.3-3.4,13.2c0,10.4,4.9,18.6,15,24.9c0.9,0.4,1.9,0.9,2.9,1.3
			l2.8,1.1l-1.4,2.7c-0.6,1.1-1,2.2-1.2,3.3L95.6,295.9z M138.7,249.3h0.4c0.3,0,0.6-0.6,0.8-1.1c-0.2-0.8-0.4-1.1-0.5-1.3
			c-0.6,0-1.1-0.2-1.6-0.6l-0.6,2.1C137.3,248.8,137.6,249.1,138.7,249.3z"/>
	</g>
	<g>
		<path class="st1" d="M108,292.2c0,5-4.1,9.1-9.1,9.1c-5,0-9.1-4.2-9.1-9.1c0-5.1,4.1-9.1,9.2-9.1C104,283.1,108,287.1,108,292.2z"
			/>
	</g>
	<g>
		<path class="st1" d="M116.1,258.5c0,5-4.1,9.1-9.1,9.1c-5,0-9.1-4.2-9.1-9.1c0-5.1,4.1-9.1,9.2-9.1
			C112.2,249.3,116.1,253.4,116.1,258.5z"/>
	</g>
	<g>
		<path class="st1" d="M180.4,257.7c0,5-4.1,9.1-9.1,9.1c-5,0-9.1-4.2-9.1-9.1c0-5.1,4.1-9.1,9.2-9.1
			C176.5,248.6,180.4,252.6,180.4,257.7z"/>
	</g>
	<g>
		<path class="st2" d="M457.4,323.3c0,5-4.1,9.1-9.1,9.1c-5,0-9.1-4.2-9.1-9.1c0-5.1,4.1-9.1,9.2-9.1
			C453.4,314.2,457.4,318.2,457.4,323.3z"/>
	</g>
	<g>
		<path class="st2" d="M225.6,257.1c0,5-4.1,9.1-9.1,9.1c-5,0-9.1-4.2-9.1-9.1c0-5.1,4.1-9.1,9.2-9.1
			C221.7,248,225.6,252,225.6,257.1z"/>
	</g>
	<g>
		<path class="st2" d="M225.3,323.3c0,5-4.1,9.1-9.1,9.1c-5,0-9.1-4.2-9.1-9.1c0-5.1,4.1-9.1,9.2-9.1
			C221.3,314.2,225.3,318.2,225.3,323.3z"/>
	</g>
	<g>
		<path class="st2" d="M148.6,248c0,5-4.1,9.1-9.1,9.1c-5,0-9.1-4.2-9.1-9.1c0-5.1,4.1-9.1,9.2-9.1
			C144.7,238.9,148.7,242.9,148.6,248z"/>
	</g>
	<g>
		<path class="st2" d="M76.1,304.1c0,5-4.1,9.1-9.1,9.1c-5,0-9.1-4.2-9.1-9.1c0-5.1,4.1-9.1,9.2-9.1C72.1,295,76.1,299,76.1,304.1z"
			/>
	</g>
</g>
</svg>
